<svg version="1.1" id="Layer_1" xmlns="http://www.w3.org/2000/svg" xmlns:xlink="http://www.w3.org/1999/xlink" x="0px" y="0px"
	 width="100%" viewBox="0 0 496 496" enable-background="new 0 0 496 496" xml:space="preserve">
<path fill="#000000" opacity="1.000000" stroke="none" 
	d="
M279.789001,294.419769 
	C266.663177,288.404266 259.163422,278.435089 256.563599,263.452332 
	C252.904160,269.865173 249.249725,274.890289 244.730621,279.293945 
	C233.830444,289.915710 220.527786,295.534546 205.681366,296.071533 
	C184.384705,296.841766 163.041214,296.324860 141.717728,296.325836 
	C140.637787,296.325897 139.361664,296.632507 138.597260,295.329712 
	C138.726822,293.661499 140.096222,293.885223 141.160034,293.663727 
	C147.899963,292.260468 151.507263,288.495667 151.533310,281.651520 
	C151.660797,248.166885 151.587234,214.681534 151.611588,181.196442 
	C151.613266,178.896484 151.132095,177.108841 148.340958,177.395737 
	C137.763840,178.482986 127.019745,178.929672 118.135315,186.056870 
	C114.679733,188.828979 112.192108,192.307755 109.858337,195.969696 
	C109.152130,197.077805 108.446823,198.307205 106.720695,197.818939 
	C105.294960,195.900330 106.674515,194.288620 107.367729,192.734177 
	C112.660530,180.865768 122.247429,174.793549 134.725601,172.731995 
	C143.442764,171.291824 152.213440,170.453552 161.059998,170.655869 
	C178.348129,171.051239 195.715759,169.543030 212.890610,172.692917 
	C239.520615,177.576843 258.082489,196.332611 261.997345,223.073471 
	C263.343933,232.271301 263.134674,241.674026 260.873230,250.852600 
	C257.796356,263.340668 266.659424,280.733185 278.953125,285.944244 
	C280.631683,284.164795 279.910217,281.896667 279.913391,279.881561 
	C279.961548,249.228592 279.954681,218.575470 279.927826,187.922424 
	C279.919281,178.154953 278.503967,176.419312 268.865204,173.807739 
	C268.280701,173.649368 267.766205,173.232697 267.350433,173.007370 
	C267.211548,171.610321 268.007385,171.163940 268.811157,171.159271 
	C283.421906,171.074203 298.182068,169.206772 312.521729,173.256516 
	C330.583008,178.357285 338.523590,194.028107 332.175995,210.936661 
	C330.349640,215.801636 326.853973,219.296204 323.067444,222.743408 
	C324.346436,224.215927 326.091431,224.211258 327.605225,224.641327 
	C343.427734,229.136276 354.265045,240.836151 355.299072,254.605438 
	C356.684113,273.048523 349.255066,286.272949 332.686462,293.426697 
	C315.432709,300.876282 297.806458,300.982971 279.789001,294.419769 
M213.853119,179.590530 
	C198.451111,175.441833 182.727722,178.020401 167.158463,177.379791 
	C164.296600,177.262039 164.115509,179.382172 164.115326,181.498108 
	C164.112305,216.118881 164.139297,250.739716 164.071350,285.360352 
	C164.064484,288.853638 165.514999,290.028168 168.863983,289.985138 
	C179.847443,289.844086 190.836121,290.023224 201.817184,289.802002 
	C217.870956,289.478546 230.180191,282.088226 238.892319,268.866425 
	C248.567642,254.182892 250.218124,237.722153 247.351578,220.925446 
	C244.032761,201.478683 234.259857,186.580811 213.853119,179.590530 
M331.808228,236.679947 
	C322.131195,228.647598 310.104584,227.936417 296.944550,226.584869 
	C300.848877,223.700073 304.190979,224.059631 306.977539,222.866333 
	C316.749298,218.681824 321.527649,208.395187 319.510376,195.604691 
	C317.866333,185.180557 311.126068,179.146484 300.084015,178.213654 
	C292.959961,177.611816 292.940338,177.611801 292.934692,184.745407 
	C292.925232,196.735748 292.948730,208.726135 292.948914,220.716492 
	C292.949249,242.199219 293.005798,263.682312 292.880829,285.164337 
	C292.858246,289.047241 293.974091,290.741882 298.137726,291.117493 
	C303.166656,291.571136 308.068542,291.498962 313.046143,290.830200 
	C325.424377,289.167175 334.888031,283.281677 339.119873,271.274872 
	C343.505920,258.830597 342.249939,247.005066 331.808228,236.679947 
z"/>
</svg>