<svg version="1.1" id="Layer_1" xmlns="http://www.w3.org/2000/svg" xmlns:xlink="http://www.w3.org/1999/xlink" x="0px" y="0px"
	 width="100%" viewBox="0 0 417 125" enable-background="new 0 0 417 125" xml:space="preserve">
<path fill="#FFFFFF" opacity="1.000000" stroke="none" 
	d="
M299.000000,126.000000 
	C199.333344,126.000000 100.166687,126.000000 1.000027,126.000000 
	C1.000018,84.333351 1.000018,42.666698 1.000009,1.000038 
	C139.999969,1.000025 278.999939,1.000025 417.999939,1.000013 
	C417.999939,42.666630 417.999939,84.333260 417.999969,125.999939 
	C378.500000,126.000000 339.000000,126.000000 299.000000,126.000000 
M397.755615,73.247772 
	C391.286438,66.697418 384.242126,68.675377 376.748566,71.281586 
	C372.399445,72.794182 370.962616,76.097137 370.355682,79.539772 
	C369.587982,83.894646 369.386475,88.619881 370.261047,92.916641 
	C371.112640,97.100594 373.344086,101.423904 378.173065,102.580902 
	C386.037598,104.465225 393.745758,105.411324 399.510223,95.856956 
	C402.142120,91.494644 401.397003,78.552658 398.546478,74.921089 
	C398.378326,74.576683 398.210205,74.232285 397.755615,73.247772 
M272.266144,41.951897 
	C277.635590,39.638378 282.992065,37.294186 288.377380,35.018173 
	C297.638763,31.103998 306.888885,27.160061 316.207611,23.386341 
	C319.046204,22.236811 319.073792,20.986652 317.171814,19.024113 
	C303.175385,24.999586 289.358215,31.059031 275.401337,36.777466 
	C269.882660,39.038578 264.459991,41.180172 258.032959,41.159866 
	C180.056595,40.913437 102.079147,40.999832 24.101988,41.001274 
	C22.602705,41.001301 21.101208,40.974018 19.604856,41.045555 
	C18.458981,41.100334 17.319609,41.291157 16.177345,41.421471 
	C16.844664,42.210827 17.511984,43.000183 18.179302,43.789539 
	C19.639879,43.859684 21.100447,43.991028 22.561033,43.991211 
	C102.870850,44.001091 183.180679,44.018154 263.490387,43.920284 
	C266.150116,43.917046 268.808380,42.736843 272.266144,41.951897 
M277.030334,78.839439 
	C270.222992,93.484879 282.076752,105.078339 294.782776,103.726273 
	C301.461639,103.015564 307.923187,101.641357 314.617859,103.119316 
	C315.280762,103.265671 316.116455,102.629349 316.871918,102.356308 
	C316.548492,101.567612 316.436493,100.532036 315.860260,100.038551 
	C314.389557,98.779015 312.711792,97.761253 311.321594,96.789825 
	C312.579132,94.501053 314.492249,92.459984 314.776886,90.212646 
	C315.450134,84.896988 315.349518,79.483307 315.561768,74.109253 
	C311.686676,73.768799 307.812408,73.417557 303.934448,73.113380 
	C303.689331,73.094154 303.415436,73.441528 302.224365,74.250008 
	C305.342682,77.022972 311.549255,75.774071 311.954742,81.185059 
	C312.297119,85.754196 312.217834,90.238945 308.368256,93.916260 
	C300.727112,86.286247 294.186981,78.227028 289.820526,68.484421 
	C288.267761,65.019844 288.958191,62.312359 291.619598,60.202442 
	C294.344513,58.042149 297.377014,58.664776 299.523499,61.178417 
	C301.041779,62.956348 301.774597,65.384689 303.044464,67.405540 
	C303.518005,68.159126 304.520844,68.580132 305.716644,69.479416 
	C305.716644,64.680855 305.716644,60.916641 305.716644,56.003342 
	C301.009613,56.003342 296.582001,55.769772 292.188293,56.056347 
	C285.030884,56.523193 280.864929,62.881531 282.335083,70.015877 
	C282.647888,71.533913 281.495636,73.541214 280.585785,75.064796 
	C279.852722,76.292427 278.467072,77.130402 277.030334,78.839439 
M23.999981,95.332344 
	C23.926685,96.788628 23.853388,98.244904 23.796581,99.373566 
	C21.518827,100.013466 19.632093,100.543510 17.745359,101.073563 
	C17.889168,101.715706 18.032976,102.357857 18.176785,103.000000 
	C24.463179,103.000000 30.749584,103.007149 37.035965,102.998535 
	C50.710182,102.979813 58.771790,98.398857 60.591682,84.434906 
	C62.300690,71.321823 59.163334,60.399563 45.208618,57.379711 
	C38.528206,55.934048 31.292740,56.949570 24.311937,57.059078 
	C22.224649,57.091824 20.148438,57.830475 18.067150,58.245708 
	C19.870754,59.108837 21.674358,59.971962 24.000000,61.084915 
	C24.000000,71.796013 24.000000,83.080170 23.999981,95.332344 
M101.086983,95.372749 
	C96.779510,100.396896 90.906219,99.340355 85.292847,100.002403 
	C85.292847,93.006493 85.292847,86.585381 85.292847,80.601135 
	C92.252113,77.650955 94.353256,84.389870 98.805069,87.764381 
	C98.805069,81.172920 98.805069,75.721680 98.805069,69.074219 
	C94.337448,72.681839 91.929764,79.122200 85.338242,76.485260 
	C85.338242,71.022064 85.338242,65.616798 85.338242,60.193256 
	C89.654816,60.193256 94.189751,59.012714 97.445419,60.546890 
	C100.326180,61.904396 101.782860,66.283905 104.600769,70.398918 
	C104.600769,64.873405 104.600769,60.992847 104.600769,57.429153 
	C93.500961,57.429153 82.803017,57.429153 72.105080,57.429153 
	C71.985321,57.896599 71.865555,58.364048 71.745796,58.831493 
	C73.390358,59.437271 75.034927,60.043049 76.835297,60.706219 
	C76.835297,73.545815 76.835297,86.497421 76.835297,99.566353 
	C76.268227,99.728462 75.800888,99.795845 75.394821,99.990829 
	C74.268936,100.531464 73.168564,101.125237 72.058113,101.698006 
	C73.292183,102.131966 74.518028,102.911057 75.761742,102.940712 
	C81.425087,103.075729 87.093460,102.999992 92.760025,103.000000 
	C106.675186,103.000015 106.677811,102.999855 105.902565,88.971268 
	C105.887390,88.696587 105.585098,88.437767 104.442131,86.630234 
	C103.294121,90.012238 102.478355,92.415443 101.086983,95.372749 
M257.077789,97.708862 
	C259.200684,89.246941 261.323547,80.785019 263.361237,72.662659 
	C265.180634,71.935966 266.738770,71.313606 268.296936,70.691254 
	C268.138611,70.222626 267.980286,69.753990 267.821960,69.285362 
	C263.270905,69.285362 258.719879,69.285362 254.168854,69.285362 
	C254.028305,69.854576 253.887772,70.423782 253.747238,70.992996 
	C255.663300,71.491333 257.579346,71.989677 259.586731,72.511765 
	C258.254059,77.879906 256.876556,83.428596 255.499069,88.977295 
	C255.013947,89.061653 254.528839,89.146019 254.043732,89.230377 
	C252.206131,83.556396 250.368530,77.882416 248.510223,72.144554 
	C246.781021,72.144554 245.154053,72.144554 243.474075,72.144554 
	C241.527054,78.244064 239.617096,84.227478 237.707138,90.210892 
	C237.305771,90.038033 236.904388,89.865173 236.503021,89.692307 
	C235.156967,83.898514 233.810913,78.104713 232.530594,72.593781 
	C234.178925,71.941330 235.737015,71.324608 237.295105,70.707878 
	C237.130585,70.235130 236.966080,69.762390 236.801559,69.289642 
	C231.593292,69.289642 226.385025,69.289642 220.628937,69.289642 
	C230.455688,78.741440 228.063950,91.913162 232.816269,102.832909 
	C236.071198,103.325584 238.772629,103.573166 239.407639,98.503105 
	C239.986450,93.881927 242.117172,89.455139 243.563858,84.942665 
	C244.010010,84.908897 244.456177,84.875130 244.902328,84.841354 
	C246.779251,90.866997 248.656174,96.892639 250.486557,102.768875 
	C254.288956,103.547974 257.019165,103.050278 257.077789,97.708862 
M166.372208,77.131233 
	C167.872482,73.451843 171.075287,72.170738 174.335144,73.256584 
	C175.944412,73.792633 177.588669,76.798340 177.705154,78.775642 
	C178.113083,85.700829 177.863312,92.664757 177.863312,99.099770 
	C175.922668,100.014809 174.422150,100.722321 172.921631,101.429832 
	C173.118057,101.871880 173.314484,102.313919 173.510910,102.755966 
	C178.611496,102.755966 183.712097,102.755966 188.812683,102.755966 
	C188.978897,102.390854 189.145111,102.025742 189.311310,101.660629 
	C187.973007,100.849327 186.634689,100.038025 184.999786,99.046921 
	C184.999786,92.363930 185.064331,85.389137 184.980774,78.416115 
	C184.904480,72.050484 181.445450,67.931686 175.719543,68.176086 
	C172.607315,68.308937 169.555878,69.865898 165.656296,71.024323 
	C165.320511,66.396820 164.994308,61.901070 164.671280,57.449326 
	C160.703903,57.449326 156.902542,57.449326 153.101196,57.449326 
	C152.986099,57.910378 152.870987,58.371426 152.755875,58.832478 
	C154.406525,59.435314 156.057175,60.038155 157.843948,60.690708 
	C157.843948,73.553673 157.843948,86.488304 157.843948,99.217880 
	C155.999741,99.965874 154.360870,100.630585 152.722015,101.295288 
	C152.915161,101.861732 153.108307,102.428177 153.301453,102.994621 
	C158.099319,102.994621 162.898422,103.048645 167.693771,102.938812 
	C168.449432,102.921494 169.188110,102.162674 169.934631,101.746704 
	C169.178101,101.165405 168.490021,100.431740 167.643250,100.051369 
	C166.974533,99.750984 166.110687,99.885017 164.536957,99.765755 
	C165.044388,92.269073 165.530975,85.080170 166.372208,77.131233 
M148.056137,80.583336 
	C146.682724,79.718536 145.376175,78.714607 143.922775,78.016281 
	C140.265808,76.259193 136.510651,74.706345 132.854752,72.947205 
	C129.104614,71.142715 127.870552,67.569664 129.270020,64.240311 
	C130.205109,62.015751 133.236176,59.504639 135.546707,59.270905 
	C140.237015,58.796429 143.014084,62.237644 144.851227,66.432747 
	C145.377731,67.635002 146.851227,68.422554 148.585312,70.053917 
	C149.660751,56.886616 148.865173,56.005634 137.476059,56.000183 
	C136.143265,55.999546 134.784225,55.831413 133.482346,56.032379 
	C128.461472,56.807446 124.004120,58.484730 121.978020,63.773663 
	C119.863853,69.292458 120.645653,74.355591 125.494873,77.800789 
	C129.133240,80.385712 133.417725,82.112213 137.529587,83.965660 
	C141.827866,85.903137 144.076965,89.948769 142.938354,94.800056 
	C141.922028,99.130333 138.743011,100.122124 134.692749,100.046898 
	C128.738785,99.936310 126.318787,95.864784 124.076477,91.340424 
	C123.402580,89.980690 122.329041,88.819031 121.438576,87.566628 
	C120.696793,91.600555 120.661583,94.844513 121.087837,98.026665 
	C121.272034,99.401711 122.121071,101.447632 123.161308,101.823395 
	C129.395523,104.075348 135.796127,104.916946 142.206619,102.308067 
	C150.990067,98.733475 153.153824,91.562653 148.056137,80.583336 
M360.969208,64.837753 
	C361.769287,66.361092 362.569366,67.884422 363.369446,69.407753 
	C363.837494,69.196709 364.305511,68.985672 364.773560,68.774635 
	C364.773560,65.016083 364.773560,61.257530 364.773560,56.002014 
	C358.955963,56.002014 353.133728,55.243076 347.628418,56.237888 
	C343.079529,57.059864 338.305817,59.206444 334.697693,62.096786 
	C328.413727,67.130676 328.959656,74.823135 328.976105,82.091560 
	C328.994629,90.280098 332.072083,97.094299 339.256897,100.912315 
	C347.068512,105.063431 355.571564,104.537643 363.774384,101.486877 
	C364.809723,101.101822 365.778198,99.216454 365.896179,97.944435 
	C366.196045,94.711411 365.995911,91.432007 365.995911,88.171173 
	C365.536957,88.008591 365.078033,87.846008 364.619080,87.683434 
	C363.818542,88.915565 362.641144,90.048042 362.284241,91.397514 
	C360.912537,96.584175 357.569458,99.443016 352.388397,99.953575 
	C346.688599,100.515259 342.837463,98.241600 340.313049,92.620621 
	C337.255951,85.813553 337.450195,78.737022 338.893921,71.480705 
	C339.985596,65.993790 341.902039,61.742218 347.638733,59.711674 
	C353.344940,57.691917 356.999908,60.625038 360.969208,64.837753 
M204.153778,103.940323 
	C206.901688,102.730339 209.649612,101.520363 212.397522,100.310379 
	C212.284958,100.608849 212.172379,100.907318 212.059814,101.205788 
	C215.236511,101.944954 218.413208,102.684120 221.589905,103.423286 
	C221.994980,102.975922 222.400055,102.528557 222.805130,102.081192 
	C216.039963,96.053314 218.327225,88.365982 218.010605,81.160828 
	C217.937683,79.501358 218.138992,77.821472 217.969147,76.176277 
	C217.544891,72.066994 215.168671,69.469620 211.112457,69.085449 
	C207.322678,68.726509 203.451889,68.768852 199.653183,69.079720 
	C195.435211,69.424911 192.283035,73.499565 193.031723,77.261314 
	C193.923935,81.744225 197.220352,79.518799 199.546707,79.847389 
	C199.976990,78.254265 200.422455,77.026970 200.628433,75.760719 
	C201.182999,72.351349 203.768341,71.321274 206.319641,72.200958 
	C208.187500,72.844986 210.132370,74.977356 210.831589,76.889343 
	C211.827164,79.611610 210.761917,81.865677 207.222000,82.455124 
	C204.218491,82.955254 201.248459,83.933800 198.407440,85.062653 
	C194.812042,86.491257 191.924133,88.506706 191.935532,93.172470 
	C191.953049,100.369064 194.581268,103.053673 204.153778,103.940323 
M346.500031,41.000000 
	C339.059753,41.000000 331.619476,41.000000 324.179199,41.000000 
	C324.050049,41.605186 323.920898,42.210373 323.791748,42.815559 
	C325.063049,43.210281 326.333282,43.945271 327.605774,43.949184 
	C350.222839,44.018848 372.840210,44.004204 395.457489,43.986206 
	C396.581573,43.985310 397.705536,43.788830 398.829529,43.683422 
	C398.946442,43.138927 399.063385,42.594433 399.180298,42.049942 
	C397.752380,41.699986 396.325836,41.052311 394.896332,41.045738 
	C379.097809,40.973114 363.298859,41.000023 346.500031,41.000000 
z"/>
<path fill="#1E52F3" opacity="1.000000" stroke="none" 
	d="
M271.866760,42.028584 
	C268.808380,42.736843 266.150116,43.917046 263.490387,43.920284 
	C183.180679,44.018154 102.870850,44.001091 22.561033,43.991211 
	C21.100447,43.991028 19.639879,43.859684 18.179302,43.789539 
	C17.511984,43.000183 16.844664,42.210827 16.177345,41.421471 
	C17.319609,41.291157 18.458981,41.100334 19.604856,41.045555 
	C21.101208,40.974018 22.602705,41.001301 24.101988,41.001274 
	C102.079147,40.999832 180.056595,40.913437 258.032959,41.159866 
	C264.459991,41.180172 269.882660,39.038578 275.401337,36.777466 
	C289.358215,31.059031 303.175385,24.999586 317.171814,19.024113 
	C319.073792,20.986652 319.046204,22.236811 316.207611,23.386341 
	C306.888885,27.160061 297.638763,31.103998 288.377380,35.018173 
	C282.992065,37.294186 277.635590,39.638378 271.866760,42.028584 
z"/>
<path fill="#1E52F3" opacity="1.000000" stroke="none" 
	d="
M277.200653,78.490349 
	C278.467072,77.130402 279.852722,76.292427 280.585785,75.064796 
	C281.495636,73.541214 282.647888,71.533913 282.335083,70.015877 
	C280.864929,62.881531 285.030884,56.523193 292.188293,56.056347 
	C296.582001,55.769772 301.009613,56.003342 305.716644,56.003342 
	C305.716644,60.916641 305.716644,64.680855 305.716644,69.479416 
	C304.520844,68.580132 303.518005,68.159126 303.044464,67.405540 
	C301.774597,65.384689 301.041779,62.956348 299.523499,61.178417 
	C297.377014,58.664776 294.344513,58.042149 291.619598,60.202442 
	C288.958191,62.312359 288.267761,65.019844 289.820526,68.484421 
	C294.186981,78.227028 300.727112,86.286247 308.368256,93.916260 
	C312.217834,90.238945 312.297119,85.754196 311.954742,81.185059 
	C311.549255,75.774071 305.342682,77.022972 302.224365,74.250008 
	C303.415436,73.441528 303.689331,73.094154 303.934448,73.113380 
	C307.812408,73.417557 311.686676,73.768799 315.561768,74.109253 
	C315.349518,79.483307 315.450134,84.896988 314.776886,90.212646 
	C314.492249,92.459984 312.579132,94.501053 311.321594,96.789825 
	C312.711792,97.761253 314.389557,98.779015 315.860260,100.038551 
	C316.436493,100.532036 316.548492,101.567612 316.871948,102.356300 
	C316.116455,102.629349 315.280762,103.265671 314.617859,103.119316 
	C307.923187,101.641357 301.461639,103.015564 294.782776,103.726273 
	C282.076752,105.078339 270.222992,93.484879 277.200653,78.490349 
M283.844513,91.376816 
	C288.803009,99.439430 296.665466,102.418373 300.672943,98.109039 
	C295.380554,91.338692 290.128876,84.620407 284.741486,77.728523 
	C281.164062,82.032570 281.630188,86.352280 283.844513,91.376816 
z"/>
<path fill="#1E52F3" opacity="1.000000" stroke="none" 
	d="
M23.999990,94.848328 
	C24.000000,83.080170 24.000000,71.796013 24.000000,61.084915 
	C21.674358,59.971962 19.870754,59.108837 18.067150,58.245708 
	C20.148438,57.830475 22.224649,57.091824 24.311937,57.059078 
	C31.292740,56.949570 38.528206,55.934048 45.208618,57.379711 
	C59.163334,60.399563 62.300690,71.321823 60.591682,84.434906 
	C58.771790,98.398857 50.710182,102.979813 37.035965,102.998535 
	C30.749584,103.007149 24.463179,103.000000 18.176785,103.000000 
	C18.032976,102.357857 17.889168,101.715706 17.745359,101.073563 
	C19.632093,100.543510 21.518827,100.013466 23.796581,99.373566 
	C23.853388,98.244904 23.926685,96.788628 23.999990,94.848328 
M32.000000,93.406250 
	C32.000000,95.515495 32.000000,97.624741 32.000000,99.714485 
	C45.868748,99.998871 49.448036,97.384865 51.762482,86.256020 
	C52.393078,83.223862 52.088749,79.963501 51.975872,76.816383 
	C51.502151,63.608646 45.952148,58.107136 32.000000,60.647923 
	C32.000000,71.199173 32.000000,81.812523 32.000000,93.406250 
z"/>
<path fill="#1E52F3" opacity="1.000000" stroke="none" 
	d="
M101.374786,95.095703 
	C102.478355,92.415443 103.294121,90.012238 104.442131,86.630234 
	C105.585098,88.437767 105.887390,88.696587 105.902565,88.971268 
	C106.677811,102.999855 106.675186,103.000015 92.760025,103.000000 
	C87.093460,102.999992 81.425087,103.075729 75.761742,102.940712 
	C74.518028,102.911057 73.292183,102.131966 72.058113,101.698006 
	C73.168564,101.125237 74.268936,100.531464 75.394821,99.990829 
	C75.800888,99.795845 76.268227,99.728462 76.835297,99.566353 
	C76.835297,86.497421 76.835297,73.545815 76.835297,60.706219 
	C75.034927,60.043049 73.390358,59.437271 71.745796,58.831493 
	C71.865555,58.364048 71.985321,57.896599 72.105080,57.429153 
	C82.803017,57.429153 93.500961,57.429153 104.600769,57.429153 
	C104.600769,60.992847 104.600769,64.873405 104.600769,70.398918 
	C101.782860,66.283905 100.326180,61.904396 97.445419,60.546890 
	C94.189751,59.012714 89.654816,60.193256 85.338242,60.193256 
	C85.338242,65.616798 85.338242,71.022064 85.338242,76.485260 
	C91.929764,79.122200 94.337448,72.681839 98.805069,69.074219 
	C98.805069,75.721680 98.805069,81.172920 98.805069,87.764381 
	C94.353256,84.389870 92.252113,77.650955 85.292847,80.601135 
	C85.292847,86.585381 85.292847,93.006493 85.292847,100.002403 
	C90.906219,99.340355 96.779510,100.396896 101.374786,95.095703 
z"/>
<path fill="#1E52F3" opacity="1.000000" stroke="none" 
	d="
M257.043884,98.129372 
	C257.019165,103.050278 254.288956,103.547974 250.486557,102.768875 
	C248.656174,96.892639 246.779251,90.866997 244.902328,84.841354 
	C244.456177,84.875130 244.010010,84.908897 243.563858,84.942665 
	C242.117172,89.455139 239.986450,93.881927 239.407639,98.503105 
	C238.772629,103.573166 236.071198,103.325584 232.816269,102.832909 
	C228.063950,91.913162 230.455688,78.741440 220.628937,69.289642 
	C226.385025,69.289642 231.593292,69.289642 236.801559,69.289642 
	C236.966080,69.762390 237.130585,70.235130 237.295105,70.707878 
	C235.737015,71.324608 234.178925,71.941330 232.530594,72.593781 
	C233.810913,78.104713 235.156967,83.898514 236.503021,89.692307 
	C236.904388,89.865173 237.305771,90.038033 237.707138,90.210892 
	C239.617096,84.227478 241.527054,78.244064 243.474075,72.144554 
	C245.154053,72.144554 246.781021,72.144554 248.510223,72.144554 
	C250.368530,77.882416 252.206131,83.556396 254.043732,89.230377 
	C254.528839,89.146019 255.013947,89.061653 255.499069,88.977295 
	C256.876556,83.428596 258.254059,77.879906 259.586731,72.511765 
	C257.579346,71.989677 255.663300,71.491333 253.747238,70.992996 
	C253.887772,70.423782 254.028305,69.854576 254.168854,69.285362 
	C258.719879,69.285362 263.270905,69.285362 267.821960,69.285362 
	C267.980286,69.753990 268.138611,70.222626 268.296936,70.691254 
	C266.738770,71.313606 265.180634,71.935966 263.361237,72.662659 
	C261.323547,80.785019 259.200684,89.246941 257.043884,98.129372 
z"/>
<path fill="#1E52F3" opacity="1.000000" stroke="none" 
	d="
M166.194885,77.511246 
	C165.530975,85.080170 165.044388,92.269073 164.536957,99.765755 
	C166.110687,99.885017 166.974533,99.750984 167.643250,100.051369 
	C168.490021,100.431740 169.178101,101.165405 169.934631,101.746704 
	C169.188110,102.162674 168.449432,102.921494 167.693771,102.938812 
	C162.898422,103.048645 158.099319,102.994621 153.301453,102.994621 
	C153.108307,102.428177 152.915161,101.861732 152.722015,101.295288 
	C154.360870,100.630585 155.999741,99.965874 157.843948,99.217880 
	C157.843948,86.488304 157.843948,73.553673 157.843948,60.690708 
	C156.057175,60.038155 154.406525,59.435314 152.755875,58.832478 
	C152.870987,58.371426 152.986099,57.910378 153.101196,57.449326 
	C156.902542,57.449326 160.703903,57.449326 164.671280,57.449326 
	C164.994308,61.901070 165.320511,66.396820 165.656296,71.024323 
	C169.555878,69.865898 172.607315,68.308937 175.719543,68.176086 
	C181.445450,67.931686 184.904480,72.050484 184.980774,78.416115 
	C185.064331,85.389137 184.999786,92.363930 184.999786,99.046921 
	C186.634689,100.038025 187.973007,100.849327 189.311310,101.660629 
	C189.145111,102.025742 188.978897,102.390854 188.812683,102.755966 
	C183.712097,102.755966 178.611496,102.755966 173.510910,102.755966 
	C173.314484,102.313919 173.118057,101.871880 172.921631,101.429832 
	C174.422150,100.722321 175.922668,100.014809 177.863312,99.099770 
	C177.863312,92.664757 178.113083,85.700829 177.705154,78.775642 
	C177.588669,76.798340 175.944412,73.792633 174.335144,73.256584 
	C171.075287,72.170738 167.872482,73.451843 166.194885,77.511246 
z"/>
<path fill="#1E52F3" opacity="1.000000" stroke="none" 
	d="
M148.334778,80.855347 
	C153.153824,91.562653 150.990067,98.733475 142.206619,102.308067 
	C135.796127,104.916946 129.395523,104.075348 123.161308,101.823395 
	C122.121071,101.447632 121.272034,99.401711 121.087837,98.026665 
	C120.661583,94.844513 120.696793,91.600555 121.438576,87.566628 
	C122.329041,88.819031 123.402580,89.980690 124.076477,91.340424 
	C126.318787,95.864784 128.738785,99.936310 134.692749,100.046898 
	C138.743011,100.122124 141.922028,99.130333 142.938354,94.800056 
	C144.076965,89.948769 141.827866,85.903137 137.529587,83.965660 
	C133.417725,82.112213 129.133240,80.385712 125.494873,77.800789 
	C120.645653,74.355591 119.863853,69.292458 121.978020,63.773663 
	C124.004120,58.484730 128.461472,56.807446 133.482346,56.032379 
	C134.784225,55.831413 136.143265,55.999546 137.476059,56.000183 
	C148.865173,56.005634 149.660751,56.886616 148.585312,70.053917 
	C146.851227,68.422554 145.377731,67.635002 144.851227,66.432747 
	C143.014084,62.237644 140.237015,58.796429 135.546707,59.270905 
	C133.236176,59.504639 130.205109,62.015751 129.270020,64.240311 
	C127.870552,67.569664 129.104614,71.142715 132.854752,72.947205 
	C136.510651,74.706345 140.265808,76.259193 143.922775,78.016281 
	C145.376175,78.714607 146.682724,79.718536 148.334778,80.855347 
z"/>
<path fill="#1E52F3" opacity="1.000000" stroke="none" 
	d="
M360.798798,64.488907 
	C356.999908,60.625038 353.344940,57.691917 347.638733,59.711674 
	C341.902039,61.742218 339.985596,65.993790 338.893921,71.480705 
	C337.450195,78.737022 337.255951,85.813553 340.313049,92.620621 
	C342.837463,98.241600 346.688599,100.515259 352.388397,99.953575 
	C357.569458,99.443016 360.912537,96.584175 362.284241,91.397514 
	C362.641144,90.048042 363.818542,88.915565 364.619080,87.683434 
	C365.078033,87.846008 365.536957,88.008591 365.995911,88.171173 
	C365.995911,91.432007 366.196045,94.711411 365.896179,97.944435 
	C365.778198,99.216454 364.809723,101.101822 363.774384,101.486877 
	C355.571564,104.537643 347.068512,105.063431 339.256897,100.912315 
	C332.072083,97.094299 328.994629,90.280098 328.976105,82.091560 
	C328.959656,74.823135 328.413727,67.130676 334.697693,62.096786 
	C338.305817,59.206444 343.079529,57.059864 347.628418,56.237888 
	C353.133728,55.243076 358.955963,56.002014 364.773560,56.002014 
	C364.773560,61.257530 364.773560,65.016083 364.773560,68.774635 
	C364.305511,68.985672 363.837494,69.196709 363.369446,69.407753 
	C362.569366,67.884422 361.769287,66.361092 360.798798,64.488907 
z"/>
<path fill="#1E52F3" opacity="1.000000" stroke="none" 
	d="
M203.739136,103.965874 
	C194.581268,103.053673 191.953049,100.369064 191.935532,93.172470 
	C191.924133,88.506706 194.812042,86.491257 198.407440,85.062653 
	C201.248459,83.933800 204.218491,82.955254 207.222000,82.455124 
	C210.761917,81.865677 211.827164,79.611610 210.831589,76.889343 
	C210.132370,74.977356 208.187500,72.844986 206.319641,72.200958 
	C203.768341,71.321274 201.182999,72.351349 200.628433,75.760719 
	C200.422455,77.026970 199.976990,78.254265 199.546707,79.847389 
	C197.220352,79.518799 193.923935,81.744225 193.031723,77.261314 
	C192.283035,73.499565 195.435211,69.424911 199.653183,69.079720 
	C203.451889,68.768852 207.322678,68.726509 211.112457,69.085449 
	C215.168671,69.469620 217.544891,72.066994 217.969147,76.176277 
	C218.138992,77.821472 217.937683,79.501358 218.010605,81.160828 
	C218.327225,88.365982 216.039963,96.053314 222.805130,102.081192 
	C222.400055,102.528557 221.994980,102.975922 221.589905,103.423286 
	C218.413208,102.684120 215.236511,101.944954 212.059814,101.205788 
	C212.172379,100.907318 212.284958,100.608849 212.397522,100.310379 
	C209.649612,101.520363 206.901688,102.730339 203.739136,103.965874 
M204.594040,99.907669 
	C210.949875,97.249176 212.008759,94.767761 210.431702,86.049156 
	C205.878601,85.816757 201.890411,87.034683 200.269867,91.647514 
	C199.084885,95.020523 200.026169,98.137596 204.594040,99.907669 
z"/>
<path fill="#1E52F3" opacity="1.000000" stroke="none" 
	d="
M398.042206,75.111954 
	C401.397003,78.552658 402.142120,91.494644 399.510223,95.856956 
	C393.745758,105.411324 386.037598,104.465225 378.173065,102.580902 
	C373.344086,101.423904 371.112640,97.100594 370.261047,92.916641 
	C369.386475,88.619881 369.587982,83.894646 370.355682,79.539772 
	C370.962616,76.097137 372.399445,72.794182 376.748566,71.281586 
	C384.242126,68.675377 391.286438,66.697418 397.886780,73.873978 
	C398.026001,74.704117 398.034119,74.908035 398.042206,75.111954 
M378.274475,76.261742 
	C378.511780,82.623428 378.366272,89.037857 379.230927,95.313095 
	C379.474945,97.084244 382.451752,99.062408 384.579193,99.839279 
	C387.103729,100.761124 389.787994,99.991623 391.035217,96.917900 
	C393.989777,89.636406 394.354065,82.197533 390.811401,75.216515 
	C389.760101,73.144913 386.208160,71.624634 383.632507,71.328979 
	C382.217926,71.166595 380.450073,74.081749 378.274475,76.261742 
z"/>
<path fill="#1E52F3" opacity="1.000000" stroke="none" 
	d="
M347.000000,41.000000 
	C363.298859,41.000023 379.097809,40.973114 394.896332,41.045738 
	C396.325836,41.052311 397.752380,41.699986 399.180298,42.049942 
	C399.063385,42.594433 398.946442,43.138927 398.829529,43.683422 
	C397.705536,43.788830 396.581573,43.985310 395.457489,43.986206 
	C372.840210,44.004204 350.222839,44.018848 327.605774,43.949184 
	C326.333282,43.945271 325.063049,43.210281 323.791748,42.815559 
	C323.920898,42.210373 324.050049,41.605186 324.179199,41.000000 
	C331.619476,41.000000 339.059753,41.000000 347.000000,41.000000 
z"/>
<path fill="#1E52F3" opacity="1.000000" stroke="none" 
	d="
M398.294342,75.016525 
	C398.034119,74.908035 398.026001,74.704117 398.029968,74.194038 
	C398.210205,74.232285 398.378326,74.576683 398.294342,75.016525 
z"/>
<path fill="#FFFFFF" opacity="1.000000" stroke="none" 
	d="
M283.578796,91.087524 
	C281.630188,86.352280 281.164062,82.032570 284.741486,77.728523 
	C290.128876,84.620407 295.380554,91.338692 300.672943,98.109039 
	C296.665466,102.418373 288.803009,99.439430 283.578796,91.087524 
z"/>
<path fill="#FFFFFF" opacity="1.000000" stroke="none" 
	d="
M32.000000,92.916061 
	C32.000000,81.812523 32.000000,71.199173 32.000000,60.647923 
	C45.952148,58.107136 51.502151,63.608646 51.975872,76.816383 
	C52.088749,79.963501 52.393078,83.223862 51.762482,86.256020 
	C49.448036,97.384865 45.868748,99.998871 32.000000,99.714485 
	C32.000000,97.624741 32.000000,95.515495 32.000000,92.916061 
z"/>
<path fill="#FFFFFF" opacity="1.000000" stroke="none" 
	d="
M204.279404,99.684402 
	C200.026169,98.137596 199.084885,95.020523 200.269867,91.647514 
	C201.890411,87.034683 205.878601,85.816757 210.431702,86.049156 
	C212.008759,94.767761 210.949875,97.249176 204.279404,99.684402 
z"/>
<path fill="#FFFFFF" opacity="1.000000" stroke="none" 
	d="
M378.557983,75.935516 
	C380.450073,74.081749 382.217926,71.166595 383.632507,71.328979 
	C386.208160,71.624634 389.760101,73.144913 390.811401,75.216515 
	C394.354065,82.197533 393.989777,89.636406 391.035217,96.917900 
	C389.787994,99.991623 387.103729,100.761124 384.579193,99.839279 
	C382.451752,99.062408 379.474945,97.084244 379.230927,95.313095 
	C378.366272,89.037857 378.511780,82.623428 378.557983,75.935516 
z"/>
</svg>