<svg version="1.1" id="Layer_1" xmlns="http://www.w3.org/2000/svg" xmlns:xlink="http://www.w3.org/1999/xlink" x="0px" y="0px"
	 width="100%" viewBox="0 0 373 374" enable-background="new 0 0 373 374" xml:space="preserve">
<path fill="#FDFDFE" opacity="1.000000" stroke="none" 
	d="
M241.000000,375.000000 
	C160.693375,375.000000 80.886765,375.000000 1.040071,375.000000 
	C1.040071,250.401779 1.040071,125.803535 1.040071,1.102645 
	C125.223221,1.102645 249.446564,1.102645 373.834961,1.102645 
	C373.834961,125.666489 373.834961,250.333221 373.834961,375.000000 
	C329.803619,375.000000 285.651794,375.000000 241.000000,375.000000 
M218.131302,186.265259 
	C218.131302,186.265259 218.030380,186.080734 218.030380,186.080734 
	C218.030380,186.080734 217.956940,186.430496 218.232651,185.813446 
	C218.290924,185.595840 218.349213,185.378250 218.368011,185.038528 
	C218.368011,185.038528 218.489685,185.079391 219.239304,185.183411 
	C220.178497,184.820740 221.117676,184.458069 222.582474,184.367325 
	C223.321808,184.192429 224.061142,184.017532 224.859802,183.895798 
	C224.859802,183.895798 224.899750,183.826874 225.826538,184.054443 
	C235.469391,183.976303 245.112564,183.822403 254.754944,183.861008 
	C258.143860,183.874573 259.484497,182.987793 259.018707,179.198776 
	C258.310760,173.439606 258.186005,167.595016 258.077057,161.781769 
	C258.022522,158.874374 257.092010,157.563034 254.034317,157.543625 
	C244.726120,157.484558 235.403763,156.858017 226.118454,157.233307 
	C221.821793,157.406982 217.598312,159.391846 212.727585,160.734497 
	C212.186920,161.075714 211.646240,161.416931 210.589798,161.675766 
	C210.072525,162.121765 209.555252,162.567764 208.425278,163.287155 
	C206.337097,165.211426 204.248917,167.135696 201.609940,169.223114 
	C201.429901,169.546661 201.249863,169.870224 200.444412,170.358963 
	C197.397156,175.062347 194.435760,179.824539 191.270142,184.446854 
	C189.396957,187.182007 187.201096,189.696167 185.150314,192.309708 
	C183.295044,189.735855 180.927078,187.389420 179.668167,184.551056 
	C171.815659,166.846420 156.937134,156.991119 137.690811,157.223389 
	C130.031723,157.315811 122.375801,157.745499 114.717369,157.779709 
	C111.901230,157.792282 110.359550,158.408844 110.294769,161.549423 
	C110.181496,167.040543 110.133827,172.564377 109.471657,178.003036 
	C108.924545,182.496643 110.353065,183.763336 114.784813,183.702957 
	C124.602669,183.569214 134.445923,183.678986 144.241745,184.286682 
	C148.609146,184.557632 153.765457,184.660339 155.954361,190.818298 
	C148.352844,195.304428 139.879135,191.604187 131.965088,193.636063 
	C131.965088,201.460068 131.965088,209.204376 131.965088,217.632065 
	C138.321014,217.632065 144.439438,217.851624 150.532608,217.554108 
	C154.528564,217.359009 156.460587,218.274780 155.861176,222.720993 
	C155.473465,225.596893 155.788284,228.567474 155.788284,231.989227 
	C161.540436,231.670853 166.506638,231.473648 171.460007,231.104660 
	C180.067276,230.463440 180.063980,230.418930 182.243958,221.906967 
	C183.465714,217.136566 185.665176,216.531845 189.402924,220.803513 
	C189.909637,224.267380 190.416351,227.731232 191.523010,231.607971 
	C191.978378,231.489288 192.433731,231.370605 193.663727,231.542313 
	C199.068542,231.453201 204.473373,231.364090 210.568008,231.668030 
	C211.347137,231.619354 212.126266,231.570694 213.581131,231.611206 
	C213.801224,229.608704 214.021301,227.606186 214.407593,225.065186 
	C214.352966,224.510269 214.298355,223.955353 214.560883,222.727814 
	C215.109802,220.916382 215.658737,219.104965 216.208633,217.181641 
	C216.208633,217.181641 216.097336,217.170074 216.909164,217.448990 
	C218.608521,217.296127 220.307877,217.143265 222.665695,217.138733 
	C223.108536,217.080292 223.551361,217.021851 224.509354,217.179138 
	C224.674591,217.093384 224.839813,217.007629 225.800156,217.060287 
	C226.871994,216.995453 227.943832,216.930618 229.329742,217.200317 
	C229.873901,217.050644 230.418076,216.900986 231.820221,216.825378 
	C233.804413,216.682083 235.788605,216.538788 238.350998,216.633728 
	C238.716202,216.048538 239.081421,215.463348 239.715317,214.060623 
	C239.665802,212.345184 239.616272,210.629730 239.795624,208.225815 
	C239.792419,207.742859 239.789230,207.259888 240.195801,206.139847 
	C240.247131,202.620392 240.298477,199.100952 240.438538,195.021255 
	C240.308929,194.673843 240.179321,194.326447 239.756958,193.286499 
	C238.793198,193.301102 237.829422,193.315689 236.168121,193.235306 
	C235.472412,193.302216 234.776703,193.369125 233.319183,193.134750 
	C232.520065,193.233994 231.720947,193.333237 230.164078,193.253006 
	C229.133087,193.312607 228.102097,193.372223 226.379959,193.140060 
	C225.897156,193.230103 225.414368,193.320145 224.094208,193.222275 
	C221.817825,193.072525 219.541428,192.922791 217.008560,192.224197 
	C216.276367,191.939621 215.544174,191.655029 214.712173,190.403442 
	C214.743805,190.080948 214.775452,189.758438 215.151672,189.521439 
	C215.151672,189.521439 215.342270,189.223190 215.342270,189.223190 
	C215.342270,189.223190 215.104828,188.960251 215.570938,188.536865 
	C215.681992,188.358749 215.793045,188.180649 216.422821,187.943008 
	C216.609543,187.537628 216.796249,187.132263 217.391266,186.438431 
	C217.391266,186.438431 217.880707,186.336472 218.131302,186.265259 
M166.535950,293.237793 
	C166.692474,293.145020 166.848999,293.052246 167.631973,293.006042 
	C167.765091,291.666840 167.898193,290.327637 168.253891,288.113007 
	C168.180542,285.413757 168.107193,282.714478 168.331192,279.373718 
	C168.785721,277.261963 169.240250,275.150238 170.213455,272.521698 
	C172.376480,272.588531 174.539520,272.655365 176.733215,272.902710 
	C176.733215,272.902710 176.884796,273.005280 176.868423,273.693604 
	C177.013260,274.124237 177.158112,274.554871 177.154800,275.912445 
	C177.154800,281.570374 177.154800,287.228302 177.154800,293.427246 
	C179.894012,293.273956 181.953171,293.158691 184.529968,293.225311 
	C184.690475,293.137634 184.850998,293.049988 185.614853,293.026489 
	C185.755310,292.687561 185.895767,292.348602 186.338516,291.121063 
	C186.305801,286.560730 186.273087,282.000427 186.767456,276.963684 
	C187.693878,274.185547 188.961594,270.889282 192.333084,272.087463 
	C193.875626,272.635651 194.878265,276.216827 195.134689,278.532227 
	C195.571594,282.477325 195.290024,286.510681 195.190247,290.503967 
	C195.101593,294.051758 197.641541,293.457306 199.696487,293.393433 
	C201.818405,293.327484 204.887695,294.426636 204.898499,290.641876 
	C204.914627,284.988068 205.039856,279.290649 204.419952,273.689117 
	C203.462387,265.036438 195.282043,261.758026 188.130157,266.742493 
	C186.980469,267.543762 185.365936,267.678070 183.770859,267.490753 
	C182.485840,266.769012 181.200836,266.047241 179.363205,264.926605 
	C177.602661,265.033447 175.842117,265.140289 173.339676,265.235565 
	C172.584091,265.830109 171.828491,266.424652 170.135132,267.003021 
	C169.481064,266.625458 168.822372,266.255615 168.173706,265.868988 
	C164.677399,263.785065 159.899719,264.934784 159.114380,268.925446 
	C159.179214,275.633789 159.244049,282.342133 159.090790,289.694183 
	C159.728561,290.798431 160.366333,291.902679 161.631882,293.308716 
	C162.081146,293.225739 162.530411,293.142761 163.431030,293.354095 
	C164.293793,293.256592 165.156540,293.159058 166.535950,293.237793 
M251.436935,272.619751 
	C252.247025,272.628265 253.057129,272.636780 253.946365,273.354492 
	C253.969727,273.591217 253.993073,273.827972 253.606049,274.408356 
	C253.375626,274.889832 253.145187,275.371338 252.176453,275.961761 
	C246.975113,277.084076 246.120819,281.139130 246.317902,285.402374 
	C246.536026,290.121399 250.117386,293.120361 255.698639,293.683136 
	C256.094696,293.634674 256.490784,293.586212 257.602936,293.847321 
	C259.654724,292.863007 261.706543,291.878723 263.945068,290.886780 
	C263.945068,290.886780 263.947968,290.699890 264.670532,290.967987 
	C265.073364,291.465515 265.423096,292.333252 265.887695,292.399841 
	C268.682159,292.800323 271.502594,293.095703 274.315918,293.110260 
	C274.494568,293.111176 274.687012,290.451477 275.051086,288.113708 
	C274.968536,284.060516 274.885986,280.007324 275.204651,275.498108 
	C274.420990,273.449310 273.637360,271.400543 272.657990,268.791473 
	C272.349457,268.555695 272.040924,268.319916 271.634552,267.461151 
	C270.732788,267.066620 269.831055,266.672089 268.431702,265.845490 
	C268.020050,265.705109 267.608429,265.564728 267.245239,265.140808 
	C267.245239,265.140808 267.033875,264.945709 266.497650,264.417023 
	C262.148285,264.331207 257.775085,263.921417 253.455460,264.239441 
	C247.716721,264.661957 246.936493,266.327942 249.720016,272.119385 
	C250.152924,272.135925 250.585815,272.152496 251.436935,272.619751 
M102.139107,290.799347 
	C104.468002,291.595062 106.796890,292.390747 109.943047,293.503906 
	C112.257179,293.429291 114.571312,293.354675 117.636284,293.555267 
	C120.320198,292.343903 123.004112,291.132507 125.920761,289.229034 
	C125.878227,288.502747 125.835686,287.776428 126.037300,286.454681 
	C125.466148,283.983246 124.414658,283.865112 122.273018,285.899384 
	C121.876678,286.096344 121.480347,286.293304 120.437042,286.390686 
	C119.669281,286.732178 118.901520,287.073700 117.426476,287.309174 
	C116.978317,287.453278 116.530151,287.597382 115.267258,287.471222 
	C111.417847,287.358734 107.606506,287.188934 106.719292,281.491791 
	C112.342804,281.491791 117.612427,281.252502 122.849022,281.565643 
	C127.229912,281.827637 127.895042,279.743530 127.293739,276.163696 
	C125.599510,266.077240 113.976692,261.189087 104.073082,266.617371 
	C104.073082,266.617371 103.966728,266.882965 103.434120,266.880463 
	C103.316193,267.013275 103.198257,267.146088 102.442566,267.320892 
	C101.362770,268.563049 100.282974,269.805237 98.869125,271.312927 
	C98.869125,271.312927 98.827988,271.737671 98.201805,272.097992 
	C95.854187,278.289703 95.162735,284.229584 101.000000,289.014740 
	C101.000000,289.014740 100.803185,289.202240 100.863518,289.735809 
	C101.165482,289.903625 101.467438,290.071411 102.139107,290.799347 
M295.963348,291.879303 
	C301.206024,294.922760 306.253876,294.575531 310.135223,290.904449 
	C314.840881,286.453705 316.044250,277.029236 312.689209,270.901642 
	C309.252197,264.624298 305.152618,263.629608 293.481842,266.591156 
	C293.481842,263.509674 293.278015,260.563721 293.532288,257.657806 
	C293.866882,253.833420 291.888824,253.280029 288.702789,253.293915 
	C285.455292,253.308075 283.396210,253.581894 283.516724,257.791229 
	C283.802460,267.770844 283.925385,277.777130 283.496277,287.746063 
	C283.274933,292.888123 285.273193,294.473785 289.761749,293.484283 
	C291.643677,293.069458 293.298889,291.626129 295.323853,291.006866 
	C295.323853,291.006866 295.738617,291.168549 295.963348,291.879303 
M131.946884,94.282776 
	C131.928329,98.946777 132.195694,103.634773 131.807007,108.267723 
	C131.451691,112.503281 133.262161,113.315338 136.994720,113.169571 
	C141.809250,112.981544 146.663239,113.150528 151.461746,113.587944 
	C152.981201,113.726448 154.377365,115.217468 155.829941,116.089539 
	C154.757660,117.645309 154.003036,120.023384 152.547058,120.585854 
	C149.505661,121.760773 146.108704,122.394234 142.831818,122.509094 
	C133.179489,122.847427 123.514236,122.915001 113.854622,122.887199 
	C110.949745,122.878838 109.591087,123.568932 109.703682,126.778275 
	C109.890434,132.101135 109.828728,137.442261 109.620018,142.765839 
	C109.496719,145.910675 110.397110,147.262894 113.810272,147.176559 
	C123.634102,146.928009 133.487381,146.521683 143.288544,147.003006 
	C158.639664,147.756836 168.901489,140.343613 176.307678,127.838181 
	C178.160385,124.709862 179.234741,121.105949 181.196625,118.062088 
	C182.487671,116.059013 184.727600,114.667511 186.542633,113.002159 
	C187.761566,114.915024 189.636719,116.684532 190.091080,118.764420 
	C192.694687,130.683090 207.321579,145.576935 218.786636,146.362732 
	C230.899033,147.192886 243.087524,146.966705 255.243484,147.013763 
	C256.298523,147.017868 258.251526,145.647476 258.277679,144.865128 
	C258.515167,137.753326 258.416992,130.630325 258.416992,122.946320 
	C255.977859,122.946320 254.188202,122.966545 252.399139,122.942902 
	C243.405014,122.824051 234.409470,122.758301 225.417603,122.542114 
	C220.395142,122.421364 216.369995,120.645157 214.691132,114.572289 
	C216.666092,114.061440 218.465286,113.337425 220.315414,113.167389 
	C225.287323,112.710442 230.280655,112.262886 235.266113,112.255989 
	C238.589111,112.251389 239.650818,111.059525 239.486542,107.840881 
	C239.266098,103.521042 239.218842,99.167603 239.497696,94.854485 
	C239.743408,91.054054 238.631287,89.396187 234.542496,89.475090 
	C229.057144,89.580940 223.562027,88.999924 218.067947,88.911972 
	C215.312180,88.867851 214.169739,87.828888 214.302826,85.033051 
	C214.458359,81.765297 214.339172,78.484459 214.339172,74.678162 
	C208.396576,74.678162 203.097946,74.660065 197.799469,74.682281 
	C189.224609,74.718231 190.053085,73.812027 190.072128,81.909607 
	C190.074860,83.068535 190.249222,84.437798 189.715683,85.336662 
	C188.960220,86.609398 187.560364,88.454414 186.544785,88.388092 
	C185.118546,88.294952 183.318665,86.947838 182.549194,85.629066 
	C181.686707,84.150864 182.078018,81.989594 181.399033,80.341743 
	C180.762466,78.796799 179.573746,76.468437 178.398285,76.321404 
	C171.070282,75.404785 163.677750,75.004013 156.497498,74.447090 
	C155.944214,80.028625 155.491089,84.599548 154.118881,88.962242 
	C146.851303,88.962242 139.583710,88.962242 131.886276,88.962242 
	C132.045563,90.764366 132.157623,92.032204 131.946884,94.282776 
M67.075348,274.500488 
	C67.076416,278.324493 67.074295,282.148499 67.079216,285.972504 
	C67.089500,293.951263 67.091545,293.958008 74.996422,293.349854 
	C75.465378,293.313782 75.915550,293.033722 76.694466,292.751129 
	C76.773369,291.369965 76.916115,289.917206 76.929947,288.463165 
	C77.037857,277.121277 77.029533,277.085876 88.183876,276.879639 
	C90.703751,276.833038 92.665367,276.882751 92.673035,273.315491 
	C92.680534,269.824066 91.175117,269.017120 88.141556,269.206848 
	C85.657440,269.362183 83.075165,269.608826 80.692169,269.093994 
	C79.273895,268.787598 78.156708,267.087555 76.904167,266.014038 
	C78.149979,265.129944 79.342186,263.590668 80.651558,263.483521 
	C84.718712,263.150787 88.830353,263.361725 93.141014,263.361725 
	C93.141014,260.539825 93.141014,258.441589 93.141014,256.176392 
	C84.427727,256.176392 75.926262,256.176392 67.073776,256.176392 
	C67.073776,262.232513 67.073776,267.867157 67.075348,274.500488 
M240.128052,274.499207 
	C240.127716,268.834564 239.995178,263.165588 240.180450,257.507019 
	C240.279526,254.481262 239.275406,253.129257 236.191147,253.485611 
	C234.579178,253.671814 232.952011,253.726532 231.324402,253.841171 
	C231.324402,267.172943 231.324402,280.054260 231.324402,292.909485 
	C234.422256,292.909485 237.118866,292.909485 240.127823,292.909485 
	C240.127823,286.798615 240.127823,281.148438 240.128052,274.499207 
M213.163437,274.557526 
	C213.163437,280.647675 213.163437,286.737854 213.163437,293.064728 
	C216.499771,293.064728 219.219650,293.064728 222.162872,293.064728 
	C222.162872,283.658936 222.162872,274.587006 222.162872,265.377960 
	C219.128021,265.377960 216.399521,265.377960 213.161499,265.377960 
	C213.161499,268.341217 213.161499,270.960297 213.163437,274.557526 
M143.874191,279.001984 
	C144.349670,271.265656 150.438782,272.708313 156.027939,272.381073 
	C155.547226,269.622437 155.313965,265.341919 154.707047,265.288300 
	C151.307175,264.987762 147.817108,265.707428 144.357849,266.078735 
	C141.457352,265.425598 138.391647,265.123505 135.340057,265.229126 
	C134.806641,265.247650 133.913101,266.974243 133.897415,267.923706 
	C133.771225,275.564667 133.757996,283.209442 133.886490,290.850067 
	C133.901260,291.728790 134.809158,293.053192 135.622330,293.382629 
	C140.661926,295.424316 143.797485,293.246002 143.810471,287.890747 
	C143.816910,285.232269 143.822952,282.573761 143.874191,279.001984 
M213.107590,259.066711 
	C215.481781,263.281067 218.945221,260.761658 221.987778,260.886566 
	C223.127716,252.939133 221.782700,251.968674 213.104187,254.421143 
	C213.104187,255.627960 213.104187,256.936005 213.107590,259.066711 
z"/>
<path fill="#081280" opacity="1.000000" stroke="none" 
	d="
M155.037979,89.170479 
	C155.491089,84.599548 155.944214,80.028625 156.497498,74.447090 
	C163.677750,75.004013 171.070282,75.404785 178.398285,76.321404 
	C179.573746,76.468437 180.762466,78.796799 181.399033,80.341743 
	C182.078018,81.989594 181.686707,84.150864 182.549194,85.629066 
	C183.318665,86.947838 185.118546,88.294952 186.544785,88.388092 
	C187.560364,88.454414 188.960220,86.609398 189.715683,85.336662 
	C190.249222,84.437798 190.074860,83.068535 190.072128,81.909607 
	C190.053085,73.812027 189.224609,74.718231 197.799469,74.682281 
	C203.097946,74.660065 208.396576,74.678162 214.339172,74.678162 
	C214.339172,78.484459 214.458359,81.765297 214.302826,85.033051 
	C214.169739,87.828888 215.312180,88.867851 218.067947,88.911972 
	C223.562027,88.999924 229.057144,89.580940 234.542496,89.475090 
	C238.631287,89.396187 239.743408,91.054054 239.497696,94.854485 
	C239.218842,99.167603 239.266098,103.521042 239.486542,107.840881 
	C239.650818,111.059525 238.589111,112.251389 235.266113,112.255989 
	C230.280655,112.262886 225.287323,112.710442 220.315414,113.167389 
	C218.465286,113.337425 216.666092,114.061440 214.691132,114.572289 
	C216.369995,120.645157 220.395142,122.421364 225.417603,122.542114 
	C234.409470,122.758301 243.405014,122.824051 252.399139,122.942902 
	C254.188202,122.966545 255.977859,122.946320 258.416992,122.946320 
	C258.416992,130.630325 258.515167,137.753326 258.277679,144.865128 
	C258.251526,145.647476 256.298523,147.017868 255.243484,147.013763 
	C243.087524,146.966705 230.899033,147.192886 218.786636,146.362732 
	C207.321579,145.576935 192.694687,130.683090 190.091080,118.764420 
	C189.636719,116.684532 187.761566,114.915024 186.542633,113.002151 
	C184.727600,114.667511 182.487671,116.059013 181.196625,118.062088 
	C179.234741,121.105949 178.160385,124.709862 176.307678,127.838181 
	C168.901489,140.343613 158.639664,147.756836 143.288544,147.003006 
	C133.487381,146.521683 123.634102,146.928009 113.810272,147.176559 
	C110.397110,147.262894 109.496719,145.910675 109.620018,142.765839 
	C109.828728,137.442261 109.890434,132.101135 109.703682,126.778275 
	C109.591087,123.568932 110.949745,122.878838 113.854622,122.887199 
	C123.514236,122.915001 133.179489,122.847427 142.831818,122.509094 
	C146.108704,122.394234 149.505661,121.760773 152.547058,120.585854 
	C154.003036,120.023384 154.757660,117.645309 155.829941,116.089539 
	C154.377365,115.217468 152.981201,113.726448 151.461746,113.587944 
	C146.663239,113.150528 141.809250,112.981544 136.994720,113.169571 
	C133.262161,113.315338 131.451691,112.503281 131.807007,108.267723 
	C132.195694,103.634773 131.928329,98.946777 132.265167,94.198547 
	C132.721619,94.676735 132.859802,95.239151 132.997986,95.801575 
	C133.797760,91.429794 136.732788,90.896355 140.289017,90.978271 
	C145.530350,91.098991 150.776505,91.009422 156.588974,91.009422 
	C155.671921,89.922127 155.354950,89.546303 155.037979,89.170479 
z"/>
<path fill="#030E7F" opacity="1.000000" stroke="none" 
	d="
M217.265045,192.773041 
	C219.541428,192.922791 221.817825,193.072525 224.505310,193.614029 
	C225.373306,194.496490 225.830215,194.987198 226.287109,195.477905 
	C226.548447,194.795883 226.809784,194.113861 227.071106,193.431824 
	C228.102097,193.372223 229.133087,193.312607 230.543701,193.665436 
	C231.554276,194.618790 232.185226,195.159729 232.816177,195.700653 
	C233.237778,194.945786 233.659393,194.190918 234.080994,193.436035 
	C234.776703,193.369125 235.472412,193.302216 236.468018,193.493073 
	C236.767899,193.750839 236.897476,194.162689 236.982117,194.473907 
	C237.919235,195.925598 238.771713,197.066055 239.633606,198.471313 
	C239.631119,199.089142 239.619232,199.442154 239.318542,199.977478 
	C239.136856,202.184570 239.243958,204.209381 239.420288,206.401550 
	C239.489517,206.568909 239.786041,206.776932 239.786041,206.776932 
	C239.789230,207.259888 239.792419,207.742859 239.324188,208.586243 
	C238.583801,210.970886 238.314880,212.995102 237.954758,215.241577 
	C237.681473,215.759583 237.651215,216.070129 237.772797,216.395493 
	C235.788605,216.538788 233.804413,216.682083 231.262695,216.562500 
	C230.141998,216.488342 229.578842,216.677063 229.015671,216.865784 
	C227.943832,216.930618 226.871994,216.995453 225.319763,216.814789 
	C224.557648,216.700668 224.275925,216.832047 223.994202,216.963440 
	C223.551361,217.021851 223.108536,217.080292 222.263702,216.717239 
	C219.607346,214.392349 217.651459,214.456787 216.097336,217.170074 
	C216.097336,217.170074 216.208633,217.181641 215.880341,217.086441 
	C214.919449,217.605621 214.286819,218.220001 213.321533,219.013550 
	C211.951965,223.220139 210.915070,227.247559 209.878174,231.274994 
	C204.473373,231.364090 199.068542,231.453201 193.302368,231.049561 
	C192.286835,229.373352 191.632675,228.189880 190.984375,226.631775 
	C190.995499,225.508072 191.000763,224.759003 191.246384,223.729004 
	C191.973663,219.200424 189.324081,214.724930 186.064758,215.566299 
	C183.721970,216.171082 180.840515,219.239334 180.358582,221.641830 
	C178.963699,228.595413 178.930023,229.089279 171.587601,229.112473 
	C169.269440,229.119797 166.951248,229.122345 164.633087,229.118469 
	C158.134735,229.107590 158.158051,229.104874 157.896103,222.557465 
	C157.766022,219.305908 157.573502,216.027771 152.737823,215.720581 
	C148.965637,215.280273 145.453354,214.749390 142.027206,215.088593 
	C137.113678,215.575058 133.778824,214.426010 133.052643,208.560425 
	C133.029373,204.767807 132.738281,201.399429 133.190704,198.134064 
	C133.342438,197.038910 135.303452,195.532669 136.583878,195.370514 
	C142.058182,194.677261 147.626541,194.673401 153.072495,193.841476 
	C154.721619,193.589554 157.412384,191.338593 157.295227,190.255356 
	C157.079468,188.260178 155.522400,185.384262 153.838348,184.776703 
	C149.702667,183.284653 145.208557,182.437271 140.801773,182.119720 
	C132.201782,181.500076 123.555626,181.535355 114.947876,180.993240 
	C113.639679,180.910843 111.384399,179.211975 111.359756,178.216415 
	C111.237114,173.262772 111.504776,168.267868 112.124359,163.349152 
	C112.283279,162.087509 114.165230,160.124115 115.347244,160.055237 
	C124.952614,159.495331 134.599808,158.787628 144.194687,159.155975 
	C153.833237,159.525986 161.324097,165.328674 168.588104,171.099976 
	C168.970413,171.403732 169.296677,171.818100 169.547623,172.241119 
	C173.142487,178.301071 176.738129,184.360703 180.295273,190.442841 
	C182.818756,194.757568 186.257278,195.275162 189.272339,191.297043 
	C191.513046,188.340607 193.088776,184.873276 194.899323,181.599579 
	C196.991302,177.817078 199.015945,173.997345 201.069824,170.193771 
	C201.249863,169.870224 201.429901,169.546661 202.249268,169.150223 
	C207.603180,166.061127 212.317764,163.044922 217.433853,159.916534 
	C230.409531,159.804367 242.983719,159.804367 256.306335,159.804367 
	C256.661560,166.855911 257.030884,174.187393 257.432037,182.150818 
	C247.700546,182.150818 238.911316,182.061111 230.126892,182.226700 
	C228.375076,182.259720 226.641647,183.268204 224.899750,183.826874 
	C224.899750,183.826874 224.859802,183.895798 224.558624,183.762146 
	C223.523926,183.784103 222.790390,183.939743 222.056870,184.095383 
	C221.117676,184.458069 220.178497,184.820740 218.709229,185.035065 
	C218.059708,184.854279 217.940262,184.821854 217.820831,184.789429 
	C218.016388,184.913162 218.211945,185.036896 218.407501,185.160645 
	C218.349213,185.378250 218.290924,185.595840 218.097580,186.078842 
	C217.962509,186.344238 217.880707,186.336472 217.880707,186.336472 
	C217.880707,186.336472 217.391266,186.438431 217.019241,186.544067 
	C216.425629,186.708969 216.208740,186.782120 215.829224,186.705902 
	C215.273727,186.600021 214.885513,186.657425 214.497314,186.714828 
	C214.751465,187.166580 215.005630,187.618347 215.434250,188.180878 
	C215.608719,188.291641 215.904083,188.002533 215.904083,188.002533 
	C215.793045,188.180649 215.681992,188.358749 215.230682,188.780945 
	C214.890442,189.025024 214.807098,189.435944 214.807098,189.435944 
	C214.775452,189.758438 214.743805,190.080948 214.810669,191.225327 
	C215.694443,192.289154 216.479752,192.531097 217.265045,192.773041 
z"/>
<path fill="#323788" opacity="1.000000" stroke="none" 
	d="
M200.757111,170.276367 
	C199.015945,173.997345 196.991302,177.817078 194.899323,181.599579 
	C193.088776,184.873276 191.513046,188.340607 189.272339,191.297043 
	C186.257278,195.275162 182.818756,194.757568 180.295273,190.442841 
	C176.738129,184.360703 173.142487,178.301071 169.547623,172.241119 
	C169.296677,171.818100 168.970413,171.403732 168.588104,171.099976 
	C161.324097,165.328674 153.833237,159.525986 144.194687,159.155975 
	C134.599808,158.787628 124.952614,159.495331 115.347244,160.055237 
	C114.165230,160.124115 112.283279,162.087509 112.124359,163.349152 
	C111.504776,168.267868 111.237114,173.262772 111.359756,178.216415 
	C111.384399,179.211975 113.639679,180.910843 114.947876,180.993240 
	C123.555626,181.535355 132.201782,181.500076 140.801773,182.119720 
	C145.208557,182.437271 149.702667,183.284653 153.838348,184.776703 
	C155.522400,185.384262 157.079468,188.260178 157.295227,190.255356 
	C157.412384,191.338593 154.721619,193.589554 153.072495,193.841476 
	C147.626541,194.673401 142.058182,194.677261 136.583878,195.370514 
	C135.303452,195.532669 133.342438,197.038910 133.190704,198.134064 
	C132.738281,201.399429 133.029373,204.767807 133.028992,209.004089 
	C133.027954,211.813553 133.027954,213.714890 133.027954,216.018646 
	C140.220978,216.018646 146.628586,216.018646 153.036209,216.018646 
	C157.573502,216.027771 157.766022,219.305908 157.896103,222.557465 
	C158.158051,229.104874 158.134735,229.107590 164.633087,229.118469 
	C166.951248,229.122345 169.269440,229.119797 171.587601,229.112473 
	C178.930023,229.089279 178.963699,228.595413 180.358582,221.641830 
	C180.840515,219.239334 183.721970,216.171082 186.064758,215.566299 
	C189.324081,214.724930 191.973663,219.200424 191.211914,223.383667 
	C190.473495,222.179260 190.009888,221.039276 189.546280,219.899277 
	C185.665176,216.531845 183.465714,217.136566 182.243958,221.906967 
	C180.063980,230.418930 180.067276,230.463440 171.460007,231.104660 
	C166.506638,231.473648 161.540436,231.670853 155.788284,231.989227 
	C155.788284,228.567474 155.473465,225.596893 155.861176,222.720993 
	C156.460587,218.274780 154.528564,217.359009 150.532608,217.554108 
	C144.439438,217.851624 138.321014,217.632065 131.965088,217.632065 
	C131.965088,209.204376 131.965088,201.460068 131.965088,193.636063 
	C139.879135,191.604187 148.352844,195.304428 155.954361,190.818298 
	C153.765457,184.660339 148.609146,184.557632 144.241745,184.286682 
	C134.445923,183.678986 124.602669,183.569214 114.784813,183.702957 
	C110.353065,183.763336 108.924545,182.496643 109.471657,178.003036 
	C110.133827,172.564377 110.181496,167.040543 110.294769,161.549423 
	C110.359550,158.408844 111.901230,157.792282 114.717369,157.779709 
	C122.375801,157.745499 130.031723,157.315811 137.690811,157.223389 
	C156.937134,156.991119 171.815659,166.846420 179.668167,184.551056 
	C180.927078,187.389420 183.295044,189.735855 185.150314,192.309708 
	C187.201096,189.696167 189.396957,187.182007 191.270142,184.446854 
	C194.435760,179.824539 197.397156,175.062347 200.757111,170.276367 
z"/>
<path fill="#161E80" opacity="1.000000" stroke="none" 
	d="
M67.074562,274.001129 
	C67.073776,267.867157 67.073776,262.232513 67.073776,256.176392 
	C75.926262,256.176392 84.427727,256.176392 93.141014,256.176392 
	C93.141014,258.441589 93.141014,260.539825 93.141014,263.361725 
	C88.830353,263.361725 84.718712,263.150787 80.651558,263.483521 
	C79.342186,263.590668 78.149979,265.129944 76.904160,266.014038 
	C78.156708,267.087555 79.273895,268.787598 80.692169,269.093994 
	C83.075165,269.608826 85.657440,269.362183 88.141556,269.206848 
	C91.175117,269.017120 92.680534,269.824066 92.673035,273.315491 
	C92.665367,276.882751 90.703751,276.833038 88.183876,276.879639 
	C77.029533,277.085876 77.037857,277.121277 76.929947,288.463165 
	C76.916115,289.917206 76.773369,291.369965 76.694466,292.751129 
	C75.915550,293.033722 75.465378,293.313782 74.996422,293.349854 
	C67.091545,293.958008 67.089500,293.951263 67.079216,285.972504 
	C67.074295,282.148499 67.076416,278.324493 67.074562,274.001129 
z"/>
<path fill="#040C7A" opacity="1.000000" stroke="none" 
	d="
M295.738617,291.168549 
	C295.738617,291.168549 295.323853,291.006866 295.126587,290.499634 
	C293.980255,289.985809 292.951904,289.739136 292.098022,290.020966 
	C290.103455,290.679291 288.192688,291.591431 285.641266,292.653290 
	C285.641266,285.167053 285.641266,279.248901 285.641266,273.330719 
	C285.641266,267.393494 285.641266,261.456268 285.641266,254.739868 
	C287.845367,255.261871 289.944092,255.313004 290.083832,255.862442 
	C291.219177,260.325897 291.987701,264.882660 292.977692,269.975647 
	C294.444977,269.066010 295.694489,267.824036 297.152100,267.489990 
	C299.781616,266.887299 302.719360,266.077606 305.202301,266.685730 
	C311.956879,268.340271 315.217529,277.430054 312.155548,284.862091 
	C309.274750,291.854248 305.832825,293.176422 295.738617,291.168549 
M295.064819,286.450256 
	C295.704132,286.664246 296.343475,286.878235 297.791901,287.150696 
	C298.872437,287.145203 299.952942,287.139709 301.389343,287.559967 
	C301.904205,287.005188 302.419067,286.450409 303.178864,285.381653 
	C303.554321,284.955811 303.929779,284.529968 304.842102,284.014862 
	C304.872223,283.335999 304.902344,282.657104 304.899017,281.119751 
	C304.898651,279.402374 304.898285,277.684998 305.261658,275.822906 
	C305.085205,275.592163 304.908752,275.361450 304.533447,274.862762 
	C304.533447,274.862762 304.511047,274.529785 304.611420,273.891357 
	C304.275665,273.677673 303.939941,273.463989 303.142700,272.921753 
	C302.392334,272.352417 301.641937,271.783112 300.845490,270.569763 
	C299.904602,270.734314 298.963715,270.898834 297.460419,271.294586 
	C296.439178,271.946350 295.417969,272.598145 293.731964,273.328705 
	C293.461090,274.543579 293.190247,275.758453 292.978668,277.784943 
	C292.939636,278.867462 292.900574,279.949982 292.337585,281.438629 
	C293.265167,282.918945 294.192719,284.399292 294.995697,285.990295 
	C294.995697,285.990295 295.112915,285.870483 295.064819,286.450256 
z"/>
<path fill="#050B78" opacity="1.000000" stroke="none" 
	d="
M271.732391,268.084137 
	C272.040924,268.319916 272.349457,268.555695 272.720520,269.431458 
	C273.456512,272.032318 274.129974,273.993225 274.803436,275.954132 
	C274.885986,280.007324 274.968536,284.060516 274.671631,288.773834 
	C272.836853,293.309021 270.177368,292.090546 267.642822,290.757996 
	C267.122620,290.201752 266.514099,289.914307 265.598511,289.633484 
	C264.843628,289.993378 264.395782,290.346649 263.947968,290.699890 
	C263.947968,290.699890 263.945068,290.886780 263.489014,290.881348 
	C260.984222,291.763214 258.935547,292.650513 256.886841,293.537781 
	C256.490784,293.586212 256.094696,293.634674 255.303604,293.282471 
	C247.975006,288.714813 246.054352,285.744019 248.909576,281.181885 
	C250.454269,278.713745 254.200500,277.623474 257.390137,275.861755 
	C259.281189,275.784760 260.781158,275.968750 262.176575,275.667755 
	C263.431183,275.397095 264.570923,274.594086 265.761322,274.025879 
	C264.869507,272.925293 263.977692,271.824707 262.955475,270.376953 
	C259.539276,270.289917 256.253510,270.550018 252.655365,270.901978 
	C251.916229,271.065338 251.489410,271.136871 251.020523,270.745026 
	C250.846115,269.039337 250.713760,267.797058 250.778366,266.425354 
	C250.975311,266.295959 251.435806,266.195465 251.722504,266.394714 
	C252.714813,266.217285 253.420425,265.840637 254.554672,265.388000 
	C257.310516,265.252808 259.637695,265.193573 262.214172,265.370270 
	C264.041229,265.545624 265.619019,265.484985 267.196777,265.424347 
	C267.608429,265.564728 268.020050,265.705109 268.730804,266.370178 
	C269.930725,267.291290 270.831573,267.687714 271.732391,268.084137 
M265.918579,284.778503 
	C266.042480,284.716248 266.166351,284.653992 266.290222,284.591736 
	C266.134399,284.401917 265.978546,284.212067 265.911072,283.237793 
	C265.632294,282.037781 265.353516,280.837769 264.851715,278.976135 
	C262.888306,279.255310 260.924866,279.534454 258.286163,280.076416 
	C257.212738,281.546936 255.302368,283.023743 255.313263,284.486176 
	C255.323181,285.813354 257.229919,287.866577 258.657440,288.241974 
	C260.190918,288.645294 262.140533,287.466339 264.428558,286.731659 
	C264.562958,286.388702 264.697357,286.045715 264.958923,285.303894 
	C265.081665,285.044128 265.263489,284.835999 265.918579,284.778503 
z"/>
<path fill="#141B81" opacity="1.000000" stroke="none" 
	d="
M240.127930,274.998718 
	C240.127823,281.148438 240.127823,286.798615 240.127823,292.909485 
	C237.118866,292.909485 234.422256,292.909485 231.324402,292.909485 
	C231.324402,280.054260 231.324402,267.172943 231.324402,253.841171 
	C232.952011,253.726532 234.579178,253.671814 236.191147,253.485611 
	C239.275406,253.129257 240.279526,254.481262 240.180450,257.507019 
	C239.995178,263.165588 240.127716,268.834564 240.127930,274.998718 
z"/>
<path fill="#202783" opacity="1.000000" stroke="none" 
	d="
M183.966278,268.120697 
	C185.365936,267.678070 186.980469,267.543762 188.130157,266.742493 
	C195.282043,261.758026 203.462387,265.036438 204.419952,273.689117 
	C205.039856,279.290649 204.914627,284.988068 204.898499,290.641876 
	C204.887695,294.426636 201.818405,293.327484 199.696487,293.393433 
	C197.641541,293.457306 195.101593,294.051758 195.190247,290.503967 
	C195.290024,286.510681 195.571594,282.477325 195.134689,278.532227 
	C194.878265,276.216827 193.875626,272.635651 192.333084,272.087463 
	C188.961594,270.889282 187.693878,274.185547 186.435425,276.853821 
	C186.099258,275.491516 186.095123,274.239075 186.041687,272.672302 
	C185.327148,271.573792 184.661926,270.789581 183.988373,269.691162 
	C183.975464,268.958252 183.970871,268.539459 183.966278,268.120697 
z"/>
<path fill="#3C408D" opacity="1.000000" stroke="none" 
	d="
M295.850983,291.523926 
	C305.832825,293.176422 309.274750,291.854248 312.155548,284.862091 
	C315.217529,277.430054 311.956879,268.340271 305.202301,266.685730 
	C302.719360,266.077606 299.781616,266.887299 297.152100,267.489990 
	C295.694489,267.824036 294.444977,269.066010 292.977692,269.975647 
	C291.987701,264.882660 291.219177,260.325897 290.083832,255.862442 
	C289.944092,255.313004 287.845367,255.261871 285.641266,254.739868 
	C285.641266,261.456268 285.641266,267.393494 285.641266,273.330719 
	C285.641266,279.248901 285.641266,285.167053 285.641266,292.653290 
	C288.192688,291.591431 290.103455,290.679291 292.098022,290.020966 
	C292.951904,289.739136 293.980255,289.985809 294.993256,290.321381 
	C293.298889,291.626129 291.643677,293.069458 289.761749,293.484283 
	C285.273193,294.473785 283.274933,292.888123 283.496277,287.746063 
	C283.925385,277.777130 283.802460,267.770844 283.516724,257.791229 
	C283.396210,253.581894 285.455292,253.308075 288.702789,253.293915 
	C291.888824,253.280029 293.866882,253.833420 293.532288,257.657806 
	C293.278015,260.563721 293.481842,263.509674 293.481842,266.591156 
	C305.152618,263.629608 309.252197,264.624298 312.689209,270.901642 
	C316.044250,277.029236 314.840881,286.453705 310.135223,290.904449 
	C306.253876,294.575531 301.206024,294.922760 295.850983,291.523926 
z"/>
<path fill="#181F7F" opacity="1.000000" stroke="none" 
	d="
M213.162476,274.068481 
	C213.161499,270.960297 213.161499,268.341217 213.161499,265.377960 
	C216.399521,265.377960 219.128021,265.377960 222.162872,265.377960 
	C222.162872,274.587006 222.162872,283.658936 222.162872,293.064728 
	C219.219650,293.064728 216.499771,293.064728 213.163437,293.064728 
	C213.163437,286.737854 213.163437,280.647675 213.162476,274.068481 
z"/>
<path fill="#424590" opacity="1.000000" stroke="none" 
	d="
M143.851685,279.458618 
	C143.822952,282.573761 143.816910,285.232269 143.810471,287.890747 
	C143.797485,293.246002 140.661926,295.424316 135.622330,293.382629 
	C134.809158,293.053192 133.901260,291.728790 133.886490,290.850067 
	C133.757996,283.209442 133.771225,275.564667 133.897415,267.923706 
	C133.913101,266.974243 134.806641,265.247650 135.340057,265.229126 
	C138.391647,265.123505 141.457352,265.425598 144.357849,266.078735 
	C147.817108,265.707428 151.307175,264.987762 154.707047,265.288300 
	C155.313965,265.341919 155.547226,269.622437 156.027939,272.381073 
	C150.438782,272.708313 144.349670,271.265656 143.851685,279.458618 
M139.958267,266.969055 
	C138.607468,267.716125 136.115982,268.417023 136.083572,269.217529 
	C135.782898,276.642242 135.905869,284.084137 135.905869,291.620209 
	C142.448227,292.218475 141.859161,288.148804 142.129745,284.256256 
	C142.376450,280.707275 142.385071,276.460480 144.324249,273.908478 
	C146.141327,271.517181 150.351608,270.944397 154.052734,269.334717 
	C153.794022,268.645416 153.217545,266.280975 152.867859,266.314056 
	C150.813950,266.508331 148.114807,266.635773 146.933731,267.952393 
	C144.133865,271.073608 142.543228,269.665680 139.958267,266.969055 
z"/>
<path fill="#595CA1" opacity="1.000000" stroke="none" 
	d="
M225.363144,183.940659 
	C226.641647,183.268204 228.375076,182.259720 230.126892,182.226700 
	C238.911316,182.061111 247.700546,182.150818 257.432037,182.150818 
	C257.030884,174.187393 256.661560,166.855911 256.306335,159.804367 
	C242.983719,159.804367 230.409531,159.804367 217.059570,159.951370 
	C215.303070,160.250763 214.322372,160.403168 213.341660,160.555573 
	C217.598312,159.391846 221.821793,157.406982 226.118454,157.233307 
	C235.403763,156.858017 244.726120,157.484558 254.034317,157.543625 
	C257.092010,157.563034 258.022522,158.874374 258.077057,161.781769 
	C258.186005,167.595016 258.310760,173.439606 259.018707,179.198776 
	C259.484497,182.987793 258.143860,183.874573 254.754944,183.861008 
	C245.112564,183.822403 235.469391,183.976303 225.363144,183.940659 
z"/>
<path fill="#0C127A" opacity="1.000000" stroke="none" 
	d="
M103.966728,266.882965 
	C103.966728,266.882965 104.073082,266.617371 104.655212,266.707031 
	C107.676987,266.514618 110.114700,266.014282 112.556664,265.992615 
	C119.141045,265.934143 123.960838,269.403931 125.562981,275.221497 
	C126.165871,277.410706 126.501083,279.748932 123.144852,279.824097 
	C117.764046,279.944519 112.379692,279.906189 106.998169,279.534943 
	C107.000465,278.068237 107.001434,277.001556 107.454529,275.876251 
	C111.132851,275.817657 114.359032,275.817657 118.328484,275.817657 
	C115.922554,269.537048 112.104309,270.319275 108.059883,271.126007 
	C106.623070,269.510895 105.294899,268.196930 103.966728,266.882965 
z"/>
<path fill="#1C2183" opacity="1.000000" stroke="none" 
	d="
M159.308899,289.050476 
	C159.244049,282.342133 159.179214,275.633789 159.626617,268.464142 
	C163.114624,268.376526 166.090378,268.750244 168.990417,269.484100 
	C164.455948,274.370758 165.987259,280.358032 165.184113,285.747040 
	C165.037933,286.727905 166.362930,287.928040 167.007263,289.262878 
	C167.005753,289.498840 167.003662,289.970703 166.752869,290.140411 
	C166.319595,290.873413 166.137131,291.436707 165.589737,292.000122 
	C164.494995,292.000977 163.765167,292.001678 162.834656,291.741425 
	C161.792831,291.328491 160.951675,291.176544 160.075439,290.750671 
	C159.796539,290.001343 159.552719,289.525909 159.308899,289.050476 
z"/>
<path fill="#050F7F" opacity="1.000000" stroke="none" 
	d="
M107.002411,275.934845 
	C107.001434,277.001556 107.000465,278.068237 106.690781,279.719147 
	C106.306557,282.039948 105.482307,284.564240 106.309830,285.350830 
	C108.087738,287.040833 110.716942,287.835266 112.939789,289.343170 
	C111.568192,290.491364 110.254456,291.292694 108.597763,292.069061 
	C107.172859,291.689545 106.090912,291.334991 104.881943,290.759216 
	C104.458260,290.385345 104.161583,290.232697 103.643082,290.037170 
	C103.421249,289.994293 102.986519,289.871002 102.871223,289.677734 
	C102.553223,289.244690 102.299049,289.088654 101.690331,289.027557 
	C101.192566,289.093201 100.997879,289.147705 100.803185,289.202240 
	C100.803185,289.202240 101.000000,289.014740 100.969681,288.764099 
	C100.903740,288.044342 100.868118,287.575256 101.023331,286.959656 
	C100.772423,286.564697 100.330696,286.316254 99.633682,285.820251 
	C98.958946,283.719543 98.539505,281.866333 98.486664,279.952087 
	C99.866104,276.580444 100.878952,273.269836 101.915703,269.949646 
	C101.939606,269.940063 101.990280,269.930756 102.219154,269.832123 
	C102.733727,269.521240 102.893196,269.237915 102.972473,268.616943 
	C103.039116,267.993195 103.059731,267.636017 103.080338,267.278870 
	C103.198257,267.146088 103.316193,267.013275 103.700424,266.881714 
	C105.294899,268.196930 106.623070,269.510895 107.973953,271.365051 
	C107.470009,272.316498 106.943359,272.727722 106.086525,273.124603 
	C105.325310,273.469360 104.894279,273.828461 104.463249,274.187531 
	C105.004112,274.459259 105.544968,274.730988 106.272911,275.121277 
	C106.686119,275.436157 106.866920,275.667816 107.002411,275.934845 
z"/>
<path fill="#383C88" opacity="1.000000" stroke="none" 
	d="
M112.997643,288.996307 
	C110.716942,287.835266 108.087738,287.040833 106.309830,285.350830 
	C105.482307,284.564240 106.306557,282.039948 106.689453,280.119141 
	C112.379692,279.906189 117.764046,279.944519 123.144852,279.824097 
	C126.501083,279.748932 126.165871,277.410706 125.562981,275.221497 
	C123.960838,269.403931 119.141045,265.934143 112.556664,265.992615 
	C110.114700,266.014282 107.676987,266.514618 104.794083,266.672729 
	C113.976692,261.189087 125.599510,266.077240 127.293739,276.163696 
	C127.895042,279.743530 127.229912,281.827637 122.849022,281.565643 
	C117.612427,281.252502 112.342804,281.491791 106.719292,281.491791 
	C107.606506,287.188934 111.417847,287.358734 115.678436,287.806030 
	C116.001160,288.393738 115.946518,288.653748 115.561180,288.929199 
	C114.463669,288.957123 113.730652,288.976715 112.997643,288.996307 
z"/>
<path fill="#030E7F" opacity="1.000000" stroke="none" 
	d="
M183.996719,270.005341 
	C184.661926,270.789581 185.327148,271.573792 185.683502,272.861389 
	C184.921310,275.006897 184.147552,276.635284 184.076111,278.293884 
	C183.880341,282.838867 183.979935,287.396576 183.597656,291.954956 
	C182.502762,291.960846 181.772827,291.961029 180.969910,291.551819 
	C180.592361,286.363068 180.195145,281.587036 180.024170,276.802948 
	C179.944443,274.572418 179.814209,272.724854 176.884796,273.005280 
	C176.884796,273.005280 176.733215,272.902710 176.798340,272.411560 
	C176.911270,269.949188 176.959076,267.977997 177.003448,266.003571 
	C177.000000,266.000366 177.004761,266.006683 177.252594,266.009460 
	C177.500443,266.012268 177.996170,266.013580 178.233002,266.025391 
	C178.469818,266.037170 178.941803,266.083252 179.003540,266.429352 
	C180.709076,267.852081 182.352905,268.928711 183.996719,270.005341 
z"/>
<path fill="#26297C" opacity="1.000000" stroke="none" 
	d="
M213.105896,258.655365 
	C213.104187,256.936005 213.104187,255.627960 213.104187,254.421143 
	C221.782700,251.968674 223.127716,252.939133 221.987778,260.886566 
	C218.945221,260.761658 215.481781,263.281067 213.105896,258.655365 
z"/>
<path fill="#151B78" opacity="1.000000" stroke="none" 
	d="
M177.006882,266.006775 
	C176.959076,267.977997 176.911270,269.949188 176.782990,272.321320 
	C174.539520,272.655365 172.376480,272.588531 169.670029,272.953308 
	C168.762360,275.595032 168.398102,277.805145 168.033844,280.015228 
	C168.107193,282.714478 168.180542,285.413757 167.886749,288.554382 
	C167.349335,289.006104 167.179062,289.016510 167.008789,289.026947 
	C166.362930,287.928040 165.037933,286.727905 165.184113,285.747040 
	C165.987259,280.358032 164.455948,274.370758 169.257309,269.423889 
	C170.090912,268.342072 170.581894,267.680603 171.072891,267.019165 
	C171.828491,266.424652 172.584091,265.830109 173.931732,265.463776 
	C175.351471,265.796936 176.179184,265.901855 177.006882,266.006775 
z"/>
<path fill="#060C69" opacity="1.000000" stroke="none" 
	d="
M154.578430,89.066360 
	C155.354950,89.546303 155.671921,89.922127 156.588974,91.009422 
	C150.776505,91.009422 145.530350,91.098991 140.289017,90.978271 
	C136.732788,90.896355 133.797760,91.429794 132.997986,95.801575 
	C132.859802,95.239151 132.721619,94.676735 132.426559,93.707169 
	C132.157623,92.032204 132.045563,90.764366 131.886276,88.962242 
	C139.583710,88.962242 146.851303,88.962242 154.578430,89.066360 
z"/>
<path fill="#424590" opacity="1.000000" stroke="none" 
	d="
M256.953583,275.911621 
	C254.200500,277.623474 250.454269,278.713745 248.909576,281.181885 
	C246.054352,285.744019 247.975006,288.714813 255.018494,293.182739 
	C250.117386,293.120361 246.536026,290.121399 246.317902,285.402374 
	C246.120819,281.139130 246.975113,277.084076 252.948471,275.951294 
	C254.798187,275.931091 255.875885,275.921356 256.953583,275.911621 
z"/>
<path fill="#202783" opacity="1.000000" stroke="none" 
	d="
M181.042877,291.961212 
	C181.772827,291.961029 182.502762,291.960846 183.617920,292.228424 
	C184.006165,292.678619 184.009232,292.861053 184.012314,293.043457 
	C181.953171,293.158691 179.894012,293.273956 177.154800,293.427246 
	C177.154800,287.228302 177.154800,281.570374 177.600601,275.566620 
	C178.334305,279.718170 178.495270,284.229797 178.997543,288.703094 
	C179.126450,289.851227 180.331970,290.878448 181.042877,291.961212 
z"/>
<path fill="#151B78" opacity="1.000000" stroke="none" 
	d="
M184.271149,293.134399 
	C184.009232,292.861053 184.006165,292.678619 183.982849,292.222717 
	C183.979935,287.396576 183.880341,282.838867 184.076111,278.293884 
	C184.147552,276.635284 184.921310,275.006897 185.732819,273.175659 
	C186.095123,274.239075 186.099258,275.491516 186.171875,277.092041 
	C186.273087,282.000427 186.305801,286.560730 185.957642,291.651886 
	C185.285355,292.367920 185.096939,292.627777 185.011505,292.962311 
	C184.850998,293.049988 184.690475,293.137634 184.271149,293.134399 
z"/>
<path fill="#ABAFDC" opacity="1.000000" stroke="none" 
	d="
M251.435806,266.195465 
	C251.435806,266.195465 250.975311,266.295959 250.423431,266.538940 
	C249.618286,268.484070 249.365036,270.186188 249.111786,271.888306 
	C246.936493,266.327942 247.716721,264.661957 253.455460,264.239441 
	C257.775085,263.921417 262.148285,264.331207 266.346069,264.748779 
	C264.784637,265.098450 263.374786,265.116364 261.964905,265.134308 
	C259.637695,265.193573 257.310516,265.252808 254.263535,265.314697 
	C252.841095,265.610016 252.138443,265.902740 251.435806,266.195465 
z"/>
<path fill="#202783" opacity="1.000000" stroke="none" 
	d="
M170.604004,267.011108 
	C170.581894,267.680603 170.090912,268.342072 169.333038,269.063721 
	C166.090378,268.750244 163.114624,268.376526 159.721283,268.004852 
	C159.899719,264.934784 164.677399,263.785065 168.173706,265.868988 
	C168.822372,266.255615 169.481064,266.625458 170.604004,267.011108 
z"/>
<path fill="#ABAFDC" opacity="1.000000" stroke="none" 
	d="
M257.390137,275.861755 
	C255.875885,275.921356 254.798187,275.931091 253.317627,275.896820 
	C253.145187,275.371338 253.375626,274.889832 254.250381,274.212219 
	C257.458069,273.869263 260.021393,273.722443 263.241638,273.537964 
	C262.181458,272.350983 261.584656,271.682770 261.332245,270.929504 
	C262.146393,270.804321 262.616119,270.764221 263.085876,270.724121 
	C263.977692,271.824707 264.869507,272.925293 265.761322,274.025879 
	C264.570923,274.594086 263.431183,275.397095 262.176575,275.667755 
	C260.781158,275.968750 259.281189,275.784760 257.390137,275.861755 
z"/>
<path fill="#424590" opacity="1.000000" stroke="none" 
	d="
M267.554443,291.026794 
	C270.177368,292.090546 272.836853,293.309021 274.582611,289.231750 
	C274.687012,290.451477 274.494568,293.111176 274.315918,293.110260 
	C271.502594,293.095703 268.682159,292.800323 265.887695,292.399841 
	C265.423096,292.333252 265.073364,291.465515 264.309265,290.833923 
	C264.395782,290.346649 264.843628,289.993378 265.711853,289.907379 
	C266.606293,290.458710 267.080383,290.742737 267.554443,291.026794 
z"/>
<path fill="#323788" opacity="1.000000" stroke="none" 
	d="
M213.034622,160.645035 
	C214.322372,160.403168 215.303070,160.250763 216.658081,160.063538 
	C212.317764,163.044922 207.603180,166.061127 202.524658,169.068649 
	C204.248917,167.135696 206.337097,165.211426 209.001770,163.167480 
	C210.087357,162.617905 210.596466,162.188019 211.105576,161.758148 
	C211.646240,161.416931 212.186920,161.075714 213.034622,160.645035 
z"/>
<path fill="#383C88" opacity="1.000000" stroke="none" 
	d="
M98.120064,280.013123 
	C98.539505,281.866333 98.958946,283.719543 99.745682,286.031281 
	C100.303505,286.752808 100.543343,286.958282 100.832504,287.106171 
	C100.868118,287.575256 100.903740,288.044342 100.871338,288.860046 
	C95.162735,284.229584 95.854187,278.289703 98.568375,272.330444 
	C98.663307,275.046295 98.391685,277.529724 98.120064,280.013123 
z"/>
<path fill="#323788" opacity="1.000000" stroke="none" 
	d="
M210.223083,231.471512 
	C210.915070,227.247559 211.951965,223.220139 213.399673,219.467758 
	C213.954910,220.962006 214.099319,222.181229 214.243729,223.400436 
	C214.298355,223.955353 214.352966,224.510269 214.214539,225.718811 
	C213.649460,228.088974 213.277420,229.805496 212.905396,231.522018 
	C212.126266,231.570694 211.347137,231.619354 210.223083,231.471512 
z"/>
<path fill="#0C127A" opacity="1.000000" stroke="none" 
	d="
M115.925682,288.920868 
	C115.946518,288.653748 116.001160,288.393738 116.085800,287.941162 
	C116.530151,287.597382 116.978317,287.453278 117.973557,287.567139 
	C119.375099,287.380127 120.229561,286.935211 121.084015,286.490265 
	C121.480347,286.293304 121.876678,286.096344 122.785767,286.134186 
	C124.130058,286.596039 124.961601,286.823090 125.793144,287.050140 
	C125.835686,287.776428 125.878227,288.502747 125.470688,289.622803 
	C123.340378,290.604950 121.660141,291.193298 119.972557,291.419983 
	C118.647545,290.376129 117.329880,289.693970 115.990326,288.989319 
	C115.968437,288.966827 115.925682,288.920868 115.925682,288.920868 
z"/>
<path fill="#0C127A" opacity="1.000000" stroke="none" 
	d="
M112.939789,289.343170 
	C113.730652,288.976715 114.463669,288.957123 115.561180,288.929199 
	C115.925682,288.920868 115.968437,288.966827 116.012299,289.315735 
	C116.391090,290.472168 116.726021,291.279663 117.034286,292.287781 
	C116.887848,292.740051 116.847122,293.003967 116.885445,293.280029 
	C114.571312,293.354675 112.257179,293.429291 109.531540,293.158661 
	C109.030449,292.581055 108.970680,292.341248 108.940720,292.094025 
	C110.254456,291.292694 111.568192,290.491364 112.939789,289.343170 
z"/>
<path fill="#151B78" opacity="1.000000" stroke="none" 
	d="
M180.969910,291.551819 
	C180.331970,290.878448 179.126450,289.851227 178.997543,288.703094 
	C178.495270,284.229797 178.334305,279.718170 177.674683,275.103149 
	C177.158112,274.554871 177.013260,274.124237 176.876617,273.349426 
	C179.814209,272.724854 179.944443,274.572418 180.024170,276.802948 
	C180.195145,281.587036 180.592361,286.363068 180.969910,291.551819 
z"/>
<path fill="#0C127A" opacity="1.000000" stroke="none" 
	d="
M98.486664,279.952087 
	C98.391685,277.529724 98.663307,275.046295 98.881462,272.150269 
	C98.827988,271.737671 98.869125,271.312927 99.332169,271.169556 
	C100.494072,270.670532 101.192932,270.314911 101.891800,269.959259 
	C100.878952,273.269836 99.866104,276.580444 98.486664,279.952087 
z"/>
<path fill="#EFF1FF" opacity="1.000000" stroke="none" 
	d="
M260.987854,271.014587 
	C261.584656,271.682770 262.181458,272.350983 263.241638,273.537964 
	C260.021393,273.722443 257.458069,273.869263 254.455566,274.040405 
	C253.993073,273.827972 253.969727,273.591217 253.944061,272.774719 
	C254.042740,271.897644 254.097473,271.592041 254.531494,271.210297 
	C256.967285,271.099823 258.977570,271.057220 260.987854,271.014587 
z"/>
<path fill="#595CA1" opacity="1.000000" stroke="none" 
	d="
M189.474609,220.351395 
	C190.009888,221.039276 190.473495,222.179260 190.971558,223.664597 
	C191.000763,224.759003 190.995499,225.508072 190.956833,227.049683 
	C190.923294,228.959854 190.923187,230.077469 190.923065,231.195099 
	C190.416351,227.731232 189.909637,224.267380 189.474609,220.351395 
z"/>
<path fill="#151B78" opacity="1.000000" stroke="none" 
	d="
M183.988373,269.691162 
	C182.352905,268.928711 180.709076,267.852081 179.202957,266.350830 
	C179.617615,265.807556 179.809341,265.607330 179.915817,265.325500 
	C181.200836,266.047241 182.485840,266.769012 183.868561,267.805725 
	C183.970871,268.539459 183.975464,268.958252 183.988373,269.691162 
z"/>
<path fill="#323788" opacity="1.000000" stroke="none" 
	d="
M238.045929,215.019318 
	C238.314880,212.995102 238.583801,210.970886 239.209747,208.930481 
	C239.616272,210.629730 239.665802,212.345184 239.345688,214.470764 
	C238.670151,214.954849 238.360107,215.000992 238.045929,215.019318 
z"/>
<path fill="#383C88" opacity="1.000000" stroke="none" 
	d="
M117.260864,293.417664 
	C116.847122,293.003967 116.887848,292.740051 117.400238,292.270752 
	C118.521873,291.962677 119.250893,291.872162 119.979904,291.781647 
	C121.660141,291.193298 123.340378,290.604950 125.354317,289.968872 
	C123.004112,291.132507 120.320198,292.343903 117.260864,293.417664 
z"/>
<path fill="#383C88" opacity="1.000000" stroke="none" 
	d="
M108.597763,292.069061 
	C108.970680,292.341248 109.030449,292.581055 109.122910,292.999939 
	C106.796890,292.390747 104.468002,291.595062 102.070740,290.397888 
	C102.002373,289.996399 102.235565,289.753998 102.419937,289.804871 
	C102.604301,289.855743 102.986519,289.871002 102.986519,289.871002 
	C102.986519,289.871002 103.421249,289.994293 103.778046,290.251221 
	C104.426216,290.665588 104.717583,290.823029 105.008957,290.980469 
	C106.090912,291.334991 107.172859,291.689545 108.597763,292.069061 
z"/>
<path fill="#424590" opacity="1.000000" stroke="none" 
	d="
M257.244873,293.692566 
	C258.935547,292.650513 260.984222,291.763214 263.395630,290.885193 
	C261.706543,291.878723 259.654724,292.863007 257.244873,293.692566 
z"/>
<path fill="#202783" opacity="1.000000" stroke="none" 
	d="
M168.182526,279.694458 
	C168.398102,277.805145 168.762360,275.595032 169.410690,273.211731 
	C169.240250,275.150238 168.785721,277.261963 168.182526,279.694458 
z"/>
<path fill="#424590" opacity="1.000000" stroke="none" 
	d="
M275.004028,275.726135 
	C274.129974,273.993225 273.456512,272.032318 272.818359,269.711578 
	C273.637360,271.400543 274.420990,273.449310 275.004028,275.726135 
z"/>
<path fill="#323788" opacity="1.000000" stroke="none" 
	d="
M216.503250,217.309540 
	C217.651459,214.456787 219.607346,214.392349 221.934479,216.643082 
	C220.307877,217.143265 218.608521,217.296127 216.503250,217.309540 
z"/>
<path fill="#595CA1" opacity="1.000000" stroke="none" 
	d="
M239.607346,199.795181 
	C239.619232,199.442154 239.631119,199.089142 239.740112,198.028214 
	C240.008102,196.740707 240.178955,196.161102 240.349823,195.581497 
	C240.298477,199.100952 240.247131,202.620392 239.990921,206.458389 
	C239.786041,206.776932 239.489517,206.568909 239.562759,205.956268 
	C239.626450,203.494141 239.616898,201.644669 239.607346,199.795181 
z"/>
<path fill="#202783" opacity="1.000000" stroke="none" 
	d="
M179.639511,265.126038 
	C179.809341,265.607330 179.617615,265.807556 179.141235,266.004730 
	C178.941803,266.083252 178.469818,266.037170 178.145020,265.862976 
	C177.548386,265.794739 177.276566,265.900696 177.004761,266.006653 
	C177.004761,266.006683 177.000000,266.000366 177.003448,266.003571 
	C176.179184,265.901855 175.351471,265.796936 174.302673,265.469543 
	C175.842117,265.140289 177.602661,265.033447 179.639511,265.126038 
z"/>
<path fill="#383C88" opacity="1.000000" stroke="none" 
	d="
M101.915703,269.949646 
	C101.192932,270.314911 100.494072,270.670532 99.499191,271.036804 
	C100.282974,269.805237 101.362770,268.563049 102.761452,267.299866 
	C103.059731,267.636017 103.039116,267.993195 102.760040,268.737396 
	C102.218895,269.322021 102.048462,269.590790 101.990280,269.930756 
	C101.990280,269.930756 101.939606,269.940063 101.915703,269.949646 
z"/>
<path fill="#323788" opacity="1.000000" stroke="none" 
	d="
M240.394165,195.301376 
	C240.178955,196.161102 240.008102,196.740707 239.730713,197.763412 
	C238.771713,197.066055 237.919235,195.925598 237.374130,194.412964 
	C238.470917,194.020218 239.260315,193.999634 240.049728,193.979034 
	C240.179321,194.326447 240.308929,194.673843 240.394165,195.301376 
z"/>
<path fill="#373C8B" opacity="1.000000" stroke="none" 
	d="
M249.415894,272.003845 
	C249.365036,270.186188 249.618286,268.484070 250.226471,266.668365 
	C250.713760,267.797058 250.846115,269.039337 251.001404,270.984772 
	C251.024353,271.687927 251.018723,272.169067 251.018723,272.169067 
	C250.585815,272.152496 250.152924,272.135925 249.415894,272.003845 
z"/>
<path fill="#323788" opacity="1.000000" stroke="none" 
	d="
M233.700089,193.285400 
	C233.659393,194.190918 233.237778,194.945786 232.816177,195.700653 
	C232.185226,195.159729 231.554276,194.618790 230.922577,193.755173 
	C231.720947,193.333237 232.520065,193.233994 233.700089,193.285400 
z"/>
<path fill="#383C88" opacity="1.000000" stroke="none" 
	d="
M125.915222,286.752411 
	C124.961601,286.823090 124.130058,286.596039 123.119034,286.095703 
	C124.414658,283.865112 125.466148,283.983246 125.915222,286.752411 
z"/>
<path fill="#202783" opacity="1.000000" stroke="none" 
	d="
M167.007263,289.262878 
	C167.179062,289.016510 167.349335,289.006104 167.775452,288.992065 
	C167.898193,290.327637 167.765091,291.666840 167.312302,292.609619 
	C166.996307,291.465698 166.999985,290.718201 167.003662,289.970703 
	C167.003662,289.970703 167.005753,289.498840 167.007263,289.262878 
z"/>
<path fill="#595CA1" opacity="1.000000" stroke="none" 
	d="
M214.402313,223.064117 
	C214.099319,222.181229 213.954910,220.962006 213.732361,219.288589 
	C214.286819,218.220001 214.919449,217.605621 215.879868,217.142395 
	C215.658737,219.104965 215.109802,220.916382 214.402313,223.064117 
z"/>
<path fill="#595CA1" opacity="1.000000" stroke="none" 
	d="
M213.243256,231.566620 
	C213.277420,229.805496 213.649460,228.088974 214.131439,225.988068 
	C214.021301,227.606186 213.801224,229.608704 213.243256,231.566620 
z"/>
<path fill="#202783" opacity="1.000000" stroke="none" 
	d="
M159.199844,289.372314 
	C159.552719,289.525909 159.796539,290.001343 160.151871,291.011963 
	C160.510284,292.033752 160.757202,292.520355 161.004105,293.006927 
	C160.366333,291.902679 159.728561,290.798431 159.199844,289.372314 
z"/>
<path fill="#373C8B" opacity="1.000000" stroke="none" 
	d="
M262.214172,265.370270 
	C263.374786,265.116364 264.784637,265.098450 266.614197,265.013123 
	C267.033875,264.945709 267.245239,265.140808 267.221008,265.282593 
	C265.619019,265.484985 264.041229,265.545624 262.214172,265.370270 
z"/>
<path fill="#323788" opacity="1.000000" stroke="none" 
	d="
M191.223038,231.401535 
	C190.923187,230.077469 190.923294,228.959854 190.950958,227.424316 
	C191.632675,228.189880 192.286835,229.373352 192.915054,230.904373 
	C192.433731,231.370605 191.978378,231.489288 191.223038,231.401535 
z"/>
<path fill="#383C88" opacity="1.000000" stroke="none" 
	d="
M120.760529,286.440491 
	C120.229561,286.935211 119.375099,287.380127 118.327202,287.620148 
	C118.901520,287.073700 119.669281,286.732178 120.760529,286.440491 
z"/>
<path fill="#323788" opacity="1.000000" stroke="none" 
	d="
M226.725540,193.285950 
	C226.809784,194.113861 226.548447,194.795883 226.287109,195.477905 
	C225.830215,194.987198 225.373306,194.496490 224.923981,193.707977 
	C225.414368,193.320145 225.897156,193.230103 226.725540,193.285950 
z"/>
<path fill="#202783" opacity="1.000000" stroke="none" 
	d="
M163.035339,292.002380 
	C163.765167,292.001678 164.494995,292.000977 165.614960,292.264984 
	C166.009842,292.706970 166.014572,292.884277 166.019302,293.061554 
	C165.156540,293.159058 164.293793,293.256592 163.212128,292.942200 
	C163.007278,292.354309 163.021317,292.178345 163.035339,292.002380 
z"/>
<path fill="#ABAFDC" opacity="1.000000" stroke="none" 
	d="
M251.227829,272.394409 
	C251.018723,272.169067 251.024353,271.687927 251.043472,271.448181 
	C251.489410,271.136871 251.916229,271.065338 252.942566,271.012665 
	C253.730072,271.113739 253.918030,271.195953 254.105988,271.278137 
	C254.097473,271.592041 254.042740,271.897644 253.904495,272.420105 
	C253.057129,272.636780 252.247025,272.628265 251.227829,272.394409 
z"/>
<path fill="#151B78" opacity="1.000000" stroke="none" 
	d="
M162.834656,291.741425 
	C163.021317,292.178345 163.007278,292.354309 162.986450,292.795044 
	C162.530411,293.142761 162.081146,293.225739 161.317993,293.157837 
	C160.757202,292.520355 160.510284,292.033752 160.186951,291.285889 
	C160.951675,291.176544 161.792831,291.328491 162.834656,291.741425 
z"/>
<path fill="#373C8B" opacity="1.000000" stroke="none" 
	d="
M271.683472,267.772644 
	C270.831573,267.687714 269.930725,267.291290 268.979614,266.586212 
	C269.831055,266.672089 270.732788,267.066620 271.683472,267.772644 
z"/>
<path fill="#595CA1" opacity="1.000000" stroke="none" 
	d="
M217.136810,192.498627 
	C216.479752,192.531097 215.694443,192.289154 214.860565,191.708832 
	C215.544174,191.655029 216.276367,191.939621 217.136810,192.498627 
z"/>
<path fill="#595CA1" opacity="1.000000" stroke="none" 
	d="
M237.954742,215.241577 
	C238.360107,215.000992 238.670151,214.954849 239.211349,214.879517 
	C239.081421,215.463348 238.716202,216.048538 238.061890,216.514618 
	C237.651215,216.070129 237.681473,215.759583 237.954742,215.241577 
z"/>
<path fill="#595CA1" opacity="1.000000" stroke="none" 
	d="
M229.172699,217.033051 
	C229.578842,216.677063 230.141998,216.488342 230.833710,216.525467 
	C230.418076,216.900986 229.873901,217.050644 229.172699,217.033051 
z"/>
<path fill="#151B78" opacity="1.000000" stroke="none" 
	d="
M166.277618,293.149658 
	C166.014572,292.884277 166.009842,292.706970 165.979874,292.264832 
	C166.137131,291.436707 166.319595,290.873413 166.752869,290.140411 
	C166.999985,290.718201 166.996307,291.465698 166.999084,292.586334 
	C166.848999,293.052246 166.692474,293.145020 166.277618,293.149658 
z"/>
<path fill="#595CA1" opacity="1.000000" stroke="none" 
	d="
M210.847687,161.716949 
	C210.596466,162.188019 210.087357,162.617905 209.308105,163.030777 
	C209.555252,162.567764 210.072525,162.121765 210.847687,161.716949 
z"/>
<path fill="#595CA1" opacity="1.000000" stroke="none" 
	d="
M222.319672,184.231354 
	C222.790390,183.939743 223.523926,183.784103 224.528961,183.735550 
	C224.061142,184.017532 223.321808,184.192429 222.319672,184.231354 
z"/>
<path fill="#595CA1" opacity="1.000000" stroke="none" 
	d="
M239.903351,193.632782 
	C239.260315,193.999634 238.470917,194.020218 237.289490,194.101746 
	C236.897476,194.162689 236.767899,193.750839 236.816772,193.540558 
	C237.829422,193.315689 238.793198,193.301102 239.903351,193.632782 
z"/>
<path fill="#595CA1" opacity="1.000000" stroke="none" 
	d="
M215.996536,186.869186 
	C216.208740,186.782120 216.425629,186.708969 216.815094,186.688293 
	C216.796249,187.132263 216.609543,187.537628 216.163452,187.972778 
	C215.904083,188.002533 215.608719,188.291641 215.675293,187.913467 
	C215.826752,187.313263 215.911636,187.091217 215.996536,186.869186 
z"/>
<path fill="#202783" opacity="1.000000" stroke="none" 
	d="
M185.313171,292.994385 
	C185.096939,292.627777 185.285355,292.367920 185.806488,292.096191 
	C185.895767,292.348602 185.755310,292.687561 185.313171,292.994385 
z"/>
<path fill="#383C88" opacity="1.000000" stroke="none" 
	d="
M100.833351,289.469025 
	C100.997879,289.147705 101.192566,289.093201 101.729950,289.218689 
	C102.072632,289.398743 102.235565,289.753998 102.235565,289.753998 
	C102.235565,289.753998 102.002373,289.996399 101.885887,290.117798 
	C101.467438,290.071411 101.165482,289.903625 100.833351,289.469025 
z"/>
<path fill="#323788" opacity="1.000000" stroke="none" 
	d="
M224.251770,217.071289 
	C224.275925,216.832047 224.557648,216.700668 224.922211,216.745590 
	C224.839813,217.007629 224.674591,217.093384 224.251770,217.071289 
z"/>
<path fill="#595CA1" opacity="1.000000" stroke="none" 
	d="
M218.006012,186.300873 
	C217.880707,186.336472 217.962509,186.344238 217.959717,186.387360 
	C217.956940,186.430496 218.030380,186.080734 218.030380,186.080734 
	C218.030380,186.080734 218.131302,186.265259 218.006012,186.300873 
z"/>
<path fill="#595CA1" opacity="1.000000" stroke="none" 
	d="
M214.979385,189.478699 
	C214.807098,189.435944 214.890442,189.025024 214.997635,188.992645 
	C215.104828,188.960251 215.342270,189.223190 215.342270,189.223190 
	C215.342270,189.223190 215.151672,189.521439 214.979385,189.478699 
z"/>
<path fill="#060C69" opacity="1.000000" stroke="none" 
	d="
M152.737823,215.720581 
	C146.628586,216.018646 140.220978,216.018646 133.027954,216.018646 
	C133.027954,213.714890 133.027954,211.813553 133.051605,209.468536 
	C133.778824,214.426010 137.113678,215.575058 142.027206,215.088593 
	C145.453354,214.749390 148.965637,215.280273 152.737823,215.720581 
z"/>
<path fill="#323788" opacity="1.000000" stroke="none" 
	d="
M239.318542,199.977478 
	C239.616898,201.644669 239.626450,203.494141 239.493530,205.788910 
	C239.243958,204.209381 239.136856,202.184570 239.318542,199.977478 
z"/>
<path fill="#323788" opacity="1.000000" stroke="none" 
	d="
M215.829224,186.705902 
	C215.911636,187.091217 215.826752,187.313263 215.500824,187.802704 
	C215.005630,187.618347 214.751465,187.166580 214.497314,186.714828 
	C214.885513,186.657425 215.273727,186.600021 215.829224,186.705902 
z"/>
<path fill="#323788" opacity="1.000000" stroke="none" 
	d="
M218.387756,185.099579 
	C218.211945,185.036896 218.016388,184.913162 217.820831,184.789429 
	C217.940262,184.821854 218.059708,184.854279 218.334412,184.983047 
	C218.489685,185.079391 218.368011,185.038528 218.387756,185.099579 
z"/>
<path fill="#E5E6F5" opacity="1.000000" stroke="none" 
	d="
M300.891571,271.213776 
	C301.641937,271.783112 302.392334,272.352417 303.403503,273.369843 
	C303.946564,274.055206 304.228821,274.292511 304.511047,274.529785 
	C304.511047,274.529785 304.533447,274.862762 304.577332,275.225128 
	C304.621185,275.587494 304.897919,275.967621 304.897919,275.967621 
	C304.898285,277.684998 304.898651,279.402374 304.710815,281.759277 
	C304.450195,282.967255 304.377716,283.535675 304.305237,284.104126 
	C303.929779,284.529968 303.554321,284.955811 302.754333,285.671509 
	C301.897705,286.352325 301.465576,286.743256 301.033478,287.134216 
	C299.952942,287.139709 298.872437,287.145203 297.253418,286.853668 
	C296.180939,286.327942 295.646942,286.099213 295.112915,285.870483 
	C295.112915,285.870483 294.995697,285.990295 294.963257,285.601013 
	C294.241028,283.818665 293.551270,282.425598 292.861511,281.032501 
	C292.900574,279.949982 292.939636,278.867462 293.224518,277.176819 
	C293.779175,275.462463 294.087982,274.356201 294.396759,273.249939 
	C295.417969,272.598145 296.439178,271.946350 298.087646,271.297363 
	C299.440460,271.271393 300.166016,271.242584 300.891571,271.213776 
z"/>
<path fill="#424590" opacity="1.000000" stroke="none" 
	d="
M292.599548,281.235565 
	C293.551270,282.425598 294.241028,283.818665 295.025513,285.545654 
	C294.192719,284.399292 293.265167,282.918945 292.599548,281.235565 
z"/>
<path fill="#424590" opacity="1.000000" stroke="none" 
	d="
M294.064362,273.289307 
	C294.087982,274.356201 293.779175,275.462463 293.194885,276.771027 
	C293.190247,275.758453 293.461090,274.543579 294.064362,273.289307 
z"/>
<path fill="#424590" opacity="1.000000" stroke="none" 
	d="
M300.868530,270.891785 
	C300.166016,271.242584 299.440460,271.271393 298.368866,271.181763 
	C298.963715,270.898834 299.904602,270.734314 300.868530,270.891785 
z"/>
<path fill="#424590" opacity="1.000000" stroke="none" 
	d="
M295.088867,286.160370 
	C295.646942,286.099213 296.180939,286.327942 296.848877,286.824432 
	C296.343475,286.878235 295.704132,286.664246 295.088867,286.160370 
z"/>
<path fill="#424590" opacity="1.000000" stroke="none" 
	d="
M301.211426,287.347076 
	C301.465576,286.743256 301.897705,286.352325 302.631897,285.928528 
	C302.419067,286.450409 301.904205,287.005188 301.211426,287.347076 
z"/>
<path fill="#424590" opacity="1.000000" stroke="none" 
	d="
M304.573669,284.059509 
	C304.377716,283.535675 304.450195,282.967255 304.727539,282.188538 
	C304.902344,282.657104 304.872223,283.335999 304.573669,284.059509 
z"/>
<path fill="#424590" opacity="1.000000" stroke="none" 
	d="
M305.079773,275.895264 
	C304.897919,275.967621 304.621185,275.587494 304.676758,275.359100 
	C304.908752,275.361450 305.085205,275.592163 305.079773,275.895264 
z"/>
<path fill="#424590" opacity="1.000000" stroke="none" 
	d="
M304.561218,274.210571 
	C304.228821,274.292511 303.946564,274.055206 303.634277,273.534119 
	C303.939941,273.463989 304.275665,273.677673 304.561218,274.210571 
z"/>
<path fill="#CBCEEF" opacity="1.000000" stroke="none" 
	d="
M263.908569,286.977844 
	C262.140533,287.466339 260.190918,288.645294 258.657440,288.241974 
	C257.229919,287.866577 255.323181,285.813354 255.313263,284.486176 
	C255.302368,283.023743 257.212738,281.546936 259.058472,280.001038 
	C261.578766,279.829681 263.326782,279.733704 265.074768,279.637756 
	C265.353516,280.837769 265.632294,282.037781 265.707489,283.755737 
	C265.503906,284.273651 265.504395,284.679474 265.504395,284.679474 
	C265.263489,284.835999 265.081665,285.044128 264.608582,285.604645 
	C264.141663,286.262878 264.025116,286.620331 263.908569,286.977844 
z"/>
<path fill="#373C8B" opacity="1.000000" stroke="none" 
	d="
M254.531494,271.210297 
	C253.918030,271.195953 253.730072,271.113739 253.254913,270.920837 
	C256.253510,270.550018 259.539276,270.289917 262.955475,270.376953 
	C262.616119,270.764221 262.146393,270.804321 261.332245,270.929535 
	C258.977570,271.057220 256.967285,271.099823 254.531494,271.210297 
z"/>
<path fill="#323788" opacity="1.000000" stroke="none" 
	d="
M264.963257,279.306946 
	C263.326782,279.733704 261.578766,279.829681 259.396118,279.869629 
	C260.924866,279.534454 262.888306,279.255310 264.963257,279.306946 
z"/>
<path fill="#373C8B" opacity="1.000000" stroke="none" 
	d="
M267.642822,290.757996 
	C267.080383,290.742737 266.606293,290.458710 266.018890,289.900757 
	C266.514099,289.914307 267.122620,290.201752 267.642822,290.757996 
z"/>
<path fill="#373C8B" opacity="1.000000" stroke="none" 
	d="
M251.722504,266.394714 
	C252.138443,265.902740 252.841095,265.610016 253.834885,265.390625 
	C253.420425,265.840637 252.714813,266.217285 251.722504,266.394714 
z"/>
<path fill="#323788" opacity="1.000000" stroke="none" 
	d="
M264.168579,286.854736 
	C264.025116,286.620331 264.141663,286.262878 264.544983,285.804077 
	C264.697357,286.045715 264.562958,286.388702 264.168579,286.854736 
z"/>
<path fill="#323788" opacity="1.000000" stroke="none" 
	d="
M265.711487,284.729004 
	C265.504395,284.679474 265.503906,284.273651 265.663330,284.147949 
	C265.978546,284.212067 266.134399,284.401917 266.290222,284.591736 
	C266.166351,284.653992 266.042480,284.716248 265.711487,284.729004 
z"/>
<path fill="#030C78" opacity="1.000000" stroke="none" 
	d="
M140.341995,267.116730 
	C142.543228,269.665680 144.133865,271.073608 146.933731,267.952393 
	C148.114807,266.635773 150.813950,266.508331 152.867859,266.314056 
	C153.217545,266.280975 153.794022,268.645416 154.052734,269.334717 
	C150.351608,270.944397 146.141327,271.517181 144.324249,273.908478 
	C142.385071,276.460480 142.376450,280.707275 142.129745,284.256256 
	C141.859161,288.148804 142.448227,292.218475 135.905869,291.620209 
	C135.905869,284.084137 135.782898,276.642242 136.083572,269.217529 
	C136.115982,268.417023 138.607468,267.716125 140.341995,267.116730 
z"/>
<path fill="#C7C9EA" opacity="1.000000" stroke="none" 
	d="
M107.454536,275.876251 
	C106.866920,275.667816 106.686119,275.436157 106.361244,274.816528 
	C106.313904,273.975067 106.365303,273.557007 106.416710,273.138916 
	C106.943359,272.727722 107.470009,272.316498 108.082588,271.666199 
	C112.104309,270.319275 115.922554,269.537048 118.328484,275.817657 
	C114.359032,275.817657 111.132851,275.817657 107.454536,275.876251 
z"/>
<path fill="#0C127A" opacity="1.000000" stroke="none" 
	d="
M106.086525,273.124603 
	C106.365303,273.557007 106.313904,273.975067 106.174164,274.697937 
	C105.544968,274.730988 105.004112,274.459259 104.463249,274.187531 
	C104.894279,273.828461 105.325310,273.469360 106.086525,273.124603 
z"/>
<path fill="#0C127A" opacity="1.000000" stroke="none" 
	d="
M101.023331,286.959656 
	C100.543343,286.958282 100.303505,286.752808 100.000977,286.278809 
	C100.330696,286.316254 100.772423,286.564697 101.023331,286.959656 
z"/>
<path fill="#0C127A" opacity="1.000000" stroke="none" 
	d="
M104.881943,290.759216 
	C104.717583,290.823029 104.426216,290.665588 103.999878,290.294098 
	C104.161583,290.232697 104.458260,290.385345 104.881943,290.759216 
z"/>
<path fill="#0C127A" opacity="1.000000" stroke="none" 
	d="
M102.419937,289.804871 
	C102.235565,289.753998 102.072632,289.398743 102.033020,289.207581 
	C102.299049,289.088654 102.553223,289.244690 102.871223,289.677734 
	C102.986519,289.871002 102.604301,289.855743 102.419937,289.804871 
z"/>
<path fill="#0C127A" opacity="1.000000" stroke="none" 
	d="
M102.219154,269.832123 
	C102.048462,269.590790 102.218895,269.322021 102.714005,269.003967 
	C102.893196,269.237915 102.733727,269.521240 102.219154,269.832123 
z"/>
<path fill="#151B78" opacity="1.000000" stroke="none" 
	d="
M177.252594,266.009460 
	C177.276566,265.900696 177.548386,265.794739 177.908188,265.851196 
	C177.996170,266.013580 177.500443,266.012268 177.252594,266.009460 
z"/>
<path fill="#050F7F" opacity="1.000000" stroke="none" 
	d="
M119.972557,291.419983 
	C119.250893,291.872162 118.521873,291.962677 117.426910,292.070190 
	C116.726021,291.279663 116.391090,290.472168 116.034180,289.338226 
	C117.329880,289.693970 118.647545,290.376129 119.972557,291.419983 
z"/>
</svg>