<svg version="1.1" id="Layer_1" xmlns="http://www.w3.org/2000/svg" xmlns:xlink="http://www.w3.org/1999/xlink" x="0px" y="0px"
	 width="100%" viewBox="0 0 432 432" enable-background="new 0 0 432 432" xml:space="preserve">
<path fill="#6186B9" opacity="1.000000" stroke="none" 
	d="
M433.000000,159.000000 
	C433.000000,250.666656 433.000000,341.833313 433.000000,433.000000 
	C289.000031,433.000000 145.000061,433.000000 1.000063,433.000000 
	C1.000042,289.000031 1.000042,145.000092 1.000021,1.000102 
	C144.999939,1.000068 288.999878,1.000068 432.999908,1.000034 
	C433.000000,53.500000 433.000000,106.000000 433.000000,159.000000 
M163.103073,99.248062 
	C163.399155,97.812805 163.948746,96.378304 163.953018,94.942177 
	C164.009674,75.898827 164.022446,56.855106 163.934341,37.811996 
	C163.926254,36.062313 163.152115,34.316174 161.956299,32.561733 
	C156.868851,32.720890 151.781387,32.880051 146.150162,33.531380 
	C145.771805,34.933159 145.069351,36.333706 145.064026,37.736904 
	C144.991318,56.875347 144.970032,76.014458 145.095779,95.152351 
	C145.106476,96.780708 146.256058,98.401581 147.819305,100.119377 
	C152.758453,100.057762 157.697586,99.996147 163.103073,99.248062 
M355.723450,99.539093 
	C356.132660,98.494431 356.891022,97.452011 356.897736,96.404770 
	C356.976105,84.159294 356.982941,71.912750 356.880463,59.667557 
	C356.868622,58.249596 356.084167,56.838100 355.134888,55.063843 
	C354.070312,50.129143 351.249603,46.691475 346.485504,44.904610 
	C338.070312,41.748344 329.631042,41.914200 321.930481,46.414207 
	C318.969757,48.144379 316.412994,51.775650 315.355347,55.079510 
	C314.761169,56.935555 316.997162,60.905598 319.034088,62.123192 
	C322.398346,64.134224 326.583008,63.738918 329.503540,60.428761 
	C331.761230,57.869884 331.715973,54.909767 329.473083,52.253849 
	C326.511230,48.746601 328.580078,47.192013 331.790344,46.265247 
	C335.992859,45.052021 339.039276,47.248642 339.314453,51.590855 
	C339.451080,53.746960 339.289337,55.920494 339.376404,58.081551 
	C339.535706,62.034912 337.899811,64.565300 334.089386,66.011734 
	C329.276215,67.838814 324.408905,69.690178 319.924530,72.178955 
	C312.541565,76.276405 310.042114,85.538429 313.670929,93.515533 
	C316.703308,100.181541 325.062958,103.311363 332.946503,100.442940 
	C335.359833,99.564850 337.475464,97.868622 339.727448,96.547050 
	C339.574158,96.944107 339.420898,97.341171 339.267609,97.738228 
	C341.067688,98.540390 342.817230,99.849480 344.678772,100.035042 
	C348.135437,100.379616 351.657440,100.068520 355.723450,99.539093 
M134.188400,177.245407 
	C134.432068,176.460052 134.884811,175.675629 134.888260,174.889221 
	C134.945114,161.938705 134.993973,148.987518 134.885895,136.037827 
	C134.874634,134.688980 133.857880,133.348541 132.995956,131.441040 
	C130.549149,128.675247 128.623550,124.656105 125.556915,123.380814 
	C116.678780,119.688797 107.492935,120.325951 99.267723,125.593369 
	C96.860153,127.135193 94.921478,130.194412 93.938316,132.972382 
	C92.764069,136.290283 94.567101,139.906586 97.954323,140.419159 
	C101.186264,140.908218 105.196327,140.187836 107.992767,138.529434 
	C110.858376,136.830032 110.073952,133.488235 108.303589,130.525894 
	C107.525208,129.223434 108.060966,127.135628 108.000053,125.404396 
	C110.958260,125.570053 114.714531,124.656754 116.705826,126.129646 
	C120.652824,129.049088 117.967819,141.641876 113.478455,143.752640 
	C108.064468,146.298096 102.369293,148.375565 97.288040,151.465118 
	C91.175926,155.181473 89.275139,163.182251 91.846825,170.643097 
	C93.919632,176.656586 98.980804,180.025314 106.517181,179.187103 
	C110.751816,178.716095 114.811928,176.675919 118.955566,175.341110 
	C117.871567,179.972672 121.461525,180.004944 125.044708,179.612656 
	C127.971283,179.292236 130.848038,178.516846 134.188400,177.245407 
M395.751221,53.658630 
	C395.550110,54.289074 395.176514,54.918633 395.173279,55.550083 
	C395.104279,69.023651 395.030273,82.497711 395.112885,95.970726 
	C395.121185,97.327171 396.125793,98.677513 397.513794,100.117073 
	C402.522308,100.060303 407.530823,100.003532 413.028229,99.266235 
	C413.327148,98.333633 413.881042,97.402458 413.886292,96.468201 
	C413.954346,84.354897 413.992920,72.240738 413.887115,60.128113 
	C413.875214,58.761555 412.937988,57.403076 412.147949,55.410751 
	C406.474121,38.823551 396.067047,40.737194 384.142883,48.095425 
	C383.939728,47.013645 383.703217,45.754093 383.450287,44.407257 
	C378.832245,44.407257 374.420898,44.407257 369.757324,44.407257 
	C369.757324,63.031082 369.757324,81.372269 369.757324,99.758499 
	C374.871460,99.758499 379.592560,99.758499 384.787476,99.758499 
	C384.787476,97.583755 384.787109,95.789566 384.787537,93.995377 
	C384.790375,82.192978 384.674652,70.388443 384.886017,58.589775 
	C384.934387,55.890305 385.522491,52.818047 386.967712,50.656513 
	C387.981781,49.139809 390.967621,48.096054 392.889832,48.332100 
	C394.150146,48.486870 395.083801,51.302048 395.751221,53.658630 
M258.070923,52.425991 
	C258.051483,66.367630 257.982483,80.309578 258.070679,94.250534 
	C258.082733,96.149635 258.880066,98.043762 260.203552,100.048286 
	C264.943085,100.048286 269.682648,100.048286 274.798401,100.048286 
	C274.798401,85.780006 274.698914,72.303978 274.881805,58.831791 
	C274.918701,56.114941 275.416992,53.049667 276.769501,50.781204 
	C279.367859,46.423271 283.788818,47.193447 285.576111,52.758617 
	C285.420532,67.547653 285.232300,82.336578 285.184296,97.125961 
	C285.181152,98.093933 286.252045,99.065392 287.776703,100.116714 
	C292.363403,100.116714 296.950134,100.116714 301.740417,100.116714 
	C301.740417,84.834511 302.181091,70.236664 301.566467,55.683380 
	C301.226318,47.628937 295.118927,43.188850 287.006531,42.904129 
	C281.026642,42.694256 276.760468,45.803673 272.969055,49.877316 
	C265.741302,40.918560 257.932800,40.503609 248.572128,47.244587 
	C245.868744,45.942738 244.062149,44.549751 242.086517,44.241982 
	C238.999130,43.761024 235.797287,44.014915 232.121964,44.642490 
	C231.752487,46.214893 231.070374,47.785648 231.062073,49.359962 
	C230.981827,64.558517 230.965698,79.758041 231.084686,94.956093 
	C231.097900,96.643761 232.065826,98.323959 233.447495,100.097588 
	C238.174164,100.097588 242.900848,100.097588 247.942413,100.097588 
	C247.942413,85.281525 247.945007,71.345657 247.940765,57.409790 
	C247.939590,53.544437 248.694702,50.056244 252.748795,48.402020 
	C255.670227,47.209969 257.135559,48.088406 258.070923,52.425991 
M235.062103,133.395279 
	C231.318802,120.733521 222.973221,118.132401 207.638031,125.343216 
	C207.638031,120.380676 207.638031,115.687073 207.638031,110.870285 
	C202.073029,110.870285 197.138336,110.870285 192.096436,111.149284 
	C191.995483,111.428970 191.976669,111.716141 192.241486,112.928200 
	C192.259811,125.079597 192.506729,137.236237 192.227676,149.380798 
	C191.982849,160.036453 187.720184,168.866745 178.100891,174.178055 
	C170.080826,178.606384 162.149689,175.568604 161.404358,167.119308 
	C160.403076,155.768478 160.853210,144.271652 161.082306,132.845551 
	C161.127563,130.588531 162.461441,127.703285 164.178406,126.327805 
	C165.727509,125.086823 168.614990,125.516525 170.912231,125.209427 
	C170.407486,126.880928 170.251587,128.781586 169.332428,130.180847 
	C166.602386,134.336838 166.767776,139.008774 170.685028,140.359741 
	C173.520386,141.337570 177.595978,141.498291 180.003326,140.101471 
	C182.113251,138.877243 183.563416,135.026398 183.717163,132.247910 
	C183.989807,127.320816 179.793716,123.299561 174.415894,121.987335 
	C163.430054,119.306709 151.354263,124.798355 147.044403,135.940109 
	C144.674911,142.065674 143.917587,149.214523 144.129608,155.847794 
	C144.470261,166.505814 149.740280,174.597046 160.437057,177.989761 
	C171.417267,181.472382 180.760605,178.581375 188.397491,170.031082 
	C189.444412,168.858932 190.415878,167.619370 191.447861,166.380295 
	C192.315628,170.938614 191.768845,177.150162 194.271957,178.837585 
	C197.178421,180.796951 202.761063,178.795990 207.179794,178.481033 
	C207.470627,178.460281 207.741501,178.159531 208.385956,177.251251 
	C208.590164,166.444031 208.857697,155.637314 208.947281,144.829147 
	C208.966125,142.555328 208.331497,140.276062 207.820862,137.255920 
	C207.889893,136.500854 207.958923,135.745773 208.093094,134.753281 
	C208.151001,134.513748 208.151703,134.271774 208.012665,133.276505 
	C208.551620,129.690842 210.259537,126.724823 214.070404,126.664688 
	C215.672318,126.639404 217.309326,128.838333 218.580170,130.767120 
	C218.421402,131.405731 218.126312,132.043854 218.123932,132.683044 
	C218.072769,146.392914 218.014359,160.103165 218.091415,173.812561 
	C218.099136,175.187927 218.966873,176.558441 219.977371,178.403809 
	C225.215210,178.248413 230.453064,178.093002 236.144135,177.245972 
	C236.397095,176.465042 236.866714,175.685181 236.870605,174.903000 
	C236.931488,162.622452 236.981888,150.341187 236.877182,138.061432 
	C236.865585,136.702087 235.889664,135.350967 235.062103,133.395279 
M33.939995,178.721512 
	C41.614841,178.785614 49.289688,178.849701 57.530270,179.238129 
	C58.671619,178.964218 59.812969,178.690308 61.605465,178.138199 
	C64.602203,177.155823 67.762337,176.505554 70.564171,175.127029 
	C78.112694,171.413116 82.765068,165.476089 83.321175,156.811035 
	C83.885269,148.021408 79.742638,141.798096 72.444008,137.468552 
	C68.724030,135.261841 64.812836,133.379410 61.012615,131.305450 
	C57.799873,129.552094 54.476223,127.948380 51.464169,125.893623 
	C47.086819,122.907494 45.903847,118.425980 47.272018,113.522682 
	C48.613789,108.713997 52.521629,106.893471 57.180546,106.512970 
	C63.370811,106.007401 68.406288,108.211388 71.573959,113.605446 
	C73.325729,116.588463 74.295380,120.020821 75.833420,123.144356 
	C76.421219,124.338097 77.611214,125.235306 78.526779,126.267654 
	C78.847702,125.978317 79.168625,125.688980 79.489548,125.399643 
	C79.489548,105.829430 79.489548,86.259216 79.489548,66.223228 
	C71.988197,66.223228 64.854660,66.173943 57.723515,66.282463 
	C56.778038,66.296844 55.844776,67.114075 54.905853,67.559494 
	C55.783447,68.313202 56.586594,69.591972 57.551655,69.728813 
	C61.517277,70.291077 63.707321,72.644569 63.839081,76.342171 
	C64.058060,82.487312 64.006493,88.669998 63.570316,94.801407 
	C63.244961,99.374992 60.857651,102.623398 55.731197,102.941666 
	C50.853474,103.244484 47.186832,100.702209 46.003948,95.468285 
	C45.127506,91.590286 44.650860,87.573692 44.464237,83.596870 
	C43.847065,70.445091 43.190601,57.253220 46.773438,44.359154 
	C48.140476,39.439392 51.000996,35.531509 56.326759,34.480434 
	C61.858608,33.388691 66.270065,35.868584 69.182175,40.317715 
	C71.520660,43.890461 72.953232,48.048084 74.905571,51.886265 
	C75.547829,53.148903 76.558647,54.224068 77.400940,55.384960 
	C77.773117,55.140686 78.145294,54.896416 78.517471,54.652142 
	C78.517471,46.958012 78.517471,39.263882 78.517471,31.206392 
	C71.452492,31.206392 64.807228,31.106213 58.166019,31.227772 
	C45.335651,31.462618 35.878807,37.404377 29.982899,48.715878 
	C23.883480,60.417816 23.838684,72.789757 27.107758,85.224083 
	C29.656691,94.919273 35.599728,101.683205 45.605503,104.356812 
	C46.308823,104.544746 46.951557,104.959412 47.992783,105.439323 
	C45.792233,106.559853 43.974922,107.372917 42.266926,108.372734 
	C28.688391,116.321266 28.215952,131.782318 41.414383,140.235062 
	C45.889462,143.101059 50.801094,145.276474 55.385792,147.983322 
	C58.519329,149.833405 61.751404,151.719421 64.369209,154.192871 
	C68.350502,157.954620 69.182594,164.271622 66.857994,169.020508 
	C64.371048,174.101059 59.832058,175.285370 54.697392,175.066895 
	C48.674137,174.810623 44.095497,171.736633 41.343414,166.666351 
	C38.990532,162.331512 37.677269,157.440643 35.755817,152.857910 
	C35.238132,151.623230 34.180187,150.615036 33.370239,149.502869 
	C32.939529,149.760468 32.508820,150.018051 32.078110,150.275635 
	C32.078110,159.741074 32.078110,169.206512 32.303783,178.780106 
	C32.529858,178.887924 32.769955,178.935211 33.939995,178.721512 
M202.752167,96.856255 
	C203.501358,97.934723 204.185089,99.883224 205.010712,99.945335 
	C209.222946,100.262207 213.471848,100.091667 217.620178,100.091667 
	C217.620178,77.115112 217.620178,55.041470 217.620178,32.817516 
	C212.358597,32.817516 207.455582,32.817516 201.938416,32.817516 
	C201.938416,37.550156 201.938416,41.888424 201.938416,46.553219 
	C192.733643,41.071362 183.301102,43.253666 177.948792,52.586254 
	C170.308746,65.907837 170.544220,79.807373 178.098053,93.054451 
	C183.329636,102.228996 193.779572,103.490868 202.752167,96.856255 
M108.320580,43.442322 
	C96.948944,46.914612 91.345261,55.252682 89.638931,66.415482 
	C87.885056,77.889450 90.153580,88.418167 99.422562,96.262329 
	C107.693398,103.261780 117.896324,103.074776 126.381546,96.314926 
	C139.955597,85.500992 140.142059,59.388096 126.752548,48.312489 
	C121.600815,44.051048 115.817627,42.139488 108.320580,43.442322 
M285.796051,157.979568 
	C284.927216,151.405853 280.250275,148.074631 275.002228,145.156158 
	C270.501862,142.653473 265.654877,140.502182 261.812439,137.203827 
	C259.913696,135.573898 258.601715,131.180450 259.462860,129.000961 
	C260.322235,126.825882 264.095093,124.976425 266.830719,124.559517 
	C271.055267,123.915672 274.510010,126.309242 276.605347,130.171234 
	C277.395660,131.627884 277.823029,133.287674 278.663757,134.708130 
	C279.091309,135.430527 280.068695,135.827484 280.797546,136.371552 
	C281.299988,135.641724 282.211212,134.925980 282.236969,134.179718 
	C282.378967,130.062302 282.304840,125.937424 282.304840,121.645874 
	C275.251373,121.645874 268.758118,121.161461 262.367889,121.766060 
	C254.004257,122.557358 248.614822,127.411102 247.243057,134.138031 
	C245.850204,140.968430 248.207764,145.314713 256.110596,150.350693 
	C260.741119,153.301437 265.631287,155.899445 269.996613,159.196426 
	C274.472870,162.577194 275.372406,168.310455 272.714905,172.059647 
	C270.123108,175.716156 263.434631,176.805206 259.110504,173.796387 
	C257.018982,172.341034 255.245895,170.111282 253.985626,167.863754 
	C252.624634,165.436630 252.135590,162.535309 251.043076,159.934570 
	C250.680389,159.071198 249.626938,158.498016 248.889282,157.792160 
	C248.343903,158.658112 247.351837,159.511307 247.326675,160.392120 
	C247.179230,165.554245 247.266373,170.722839 247.256531,175.889236 
	C247.251373,178.598358 248.553558,179.919479 251.277008,179.681442 
	C257.867615,179.105362 264.552551,179.010010 271.021790,177.783615 
	C280.789948,175.931793 285.877380,168.966232 285.796051,157.979568 
z"/>
<path fill="#FAFBFD" opacity="1.000000" stroke="none" 
	d="
M56.964535,178.913803 
	C49.289688,178.849701 41.614841,178.785614 33.251648,178.736252 
	C32.563297,178.750992 32.078110,178.671951 32.078110,178.671951 
	C32.078110,169.206512 32.078110,159.741074 32.078110,150.275635 
	C32.508820,150.018051 32.939529,149.760468 33.370239,149.502869 
	C34.180187,150.615036 35.238132,151.623230 35.755817,152.857910 
	C37.677269,157.440643 38.990532,162.331512 41.343414,166.666351 
	C44.095497,171.736633 48.674137,174.810623 54.697392,175.066895 
	C59.832058,175.285370 64.371048,174.101059 66.857994,169.020508 
	C69.182594,164.271622 68.350502,157.954620 64.369209,154.192871 
	C61.751404,151.719421 58.519329,149.833405 55.385792,147.983322 
	C50.801094,145.276474 45.889462,143.101059 41.414383,140.235062 
	C28.215952,131.782318 28.688391,116.321266 42.266926,108.372734 
	C43.974922,107.372917 45.792233,106.559853 47.992783,105.439323 
	C46.951557,104.959412 46.308823,104.544746 45.605503,104.356812 
	C35.599728,101.683205 29.656691,94.919273 27.107758,85.224083 
	C23.838684,72.789757 23.883480,60.417816 29.982899,48.715878 
	C35.878807,37.404377 45.335651,31.462618 58.166019,31.227772 
	C64.807228,31.106213 71.452492,31.206392 78.517471,31.206392 
	C78.517471,39.263882 78.517471,46.958012 78.517471,54.652142 
	C78.145294,54.896416 77.773117,55.140686 77.400940,55.384960 
	C76.558647,54.224068 75.547829,53.148903 74.905571,51.886265 
	C72.953232,48.048084 71.520660,43.890461 69.182175,40.317715 
	C66.270065,35.868584 61.858608,33.388691 56.326759,34.480434 
	C51.000996,35.531509 48.140476,39.439392 46.773438,44.359154 
	C43.190601,57.253220 43.847065,70.445091 44.464237,83.596870 
	C44.650860,87.573692 45.127506,91.590286 46.003948,95.468285 
	C47.186832,100.702209 50.853474,103.244484 55.731197,102.941666 
	C60.857651,102.623398 63.244961,99.374992 63.570316,94.801407 
	C64.006493,88.669998 64.058060,82.487312 63.839081,76.342171 
	C63.707321,72.644569 61.517277,70.291077 57.551655,69.728813 
	C56.586594,69.591972 55.783447,68.313202 54.905853,67.559494 
	C55.844776,67.114075 56.778038,66.296844 57.723515,66.282463 
	C64.854660,66.173943 71.988197,66.223228 79.489548,66.223228 
	C79.489548,86.259216 79.489548,105.829430 79.489548,125.399643 
	C79.168625,125.688980 78.847702,125.978317 78.526779,126.267654 
	C77.611214,125.235306 76.421219,124.338097 75.833420,123.144356 
	C74.295380,120.020821 73.325729,116.588463 71.573959,113.605446 
	C68.406288,108.211388 63.370811,106.007401 57.180546,106.512970 
	C52.521629,106.893471 48.613789,108.713997 47.272018,113.522682 
	C45.903847,118.425980 47.086819,122.907494 51.464169,125.893623 
	C54.476223,127.948380 57.799873,129.552094 61.012615,131.305450 
	C64.812836,133.379410 68.724030,135.261841 72.444008,137.468552 
	C79.742638,141.798096 83.885269,148.021408 83.321175,156.811035 
	C82.765068,165.476089 78.112694,171.413116 70.564171,175.127029 
	C67.762337,176.505554 64.602203,177.155823 60.875896,178.266083 
	C59.085732,178.567245 58.025131,178.740524 56.964535,178.913803 
z"/>
<path fill="#F9FAFC" opacity="1.000000" stroke="none" 
	d="
M235.690903,177.937607 
	C230.453064,178.093002 225.215210,178.248413 219.754837,177.705429 
	C219.546967,170.569641 219.648773,164.130966 219.555496,157.695129 
	C219.421814,148.471039 219.145706,139.249039 218.930389,130.026138 
	C217.309326,128.838333 215.672318,126.639404 214.070404,126.664688 
	C210.259537,126.724823 208.551620,129.690842 207.986649,133.889236 
	C207.960632,134.501968 208.027954,134.990707 208.027954,134.990707 
	C207.958923,135.745773 207.889893,136.500854 207.841461,138.092087 
	C207.915283,151.948502 207.968475,164.968765 208.021667,177.989014 
	C207.741501,178.159531 207.470627,178.460281 207.179794,178.481033 
	C202.761063,178.795990 197.178421,180.796951 194.271957,178.837585 
	C191.768845,177.150162 192.315628,170.938614 191.447861,166.380295 
	C190.415878,167.619370 189.444412,168.858932 188.397491,170.031082 
	C180.760605,178.581375 171.417267,181.472382 160.437057,177.989761 
	C149.740280,174.597046 144.470261,166.505814 144.129608,155.847794 
	C143.917587,149.214523 144.674911,142.065674 147.044403,135.940109 
	C151.354263,124.798355 163.430054,119.306709 174.415894,121.987335 
	C179.793716,123.299561 183.989807,127.320816 183.717163,132.247910 
	C183.563416,135.026398 182.113251,138.877243 180.003326,140.101471 
	C177.595978,141.498291 173.520386,141.337570 170.685028,140.359741 
	C166.767776,139.008774 166.602386,134.336838 169.332428,130.180847 
	C170.251587,128.781586 170.407486,126.880928 170.912231,125.209427 
	C168.614990,125.516525 165.727509,125.086823 164.178406,126.327805 
	C162.461441,127.703285 161.127563,130.588531 161.082306,132.845551 
	C160.853210,144.271652 160.403076,155.768478 161.404358,167.119308 
	C162.149689,175.568604 170.080826,178.606384 178.100891,174.178055 
	C187.720184,168.866745 191.982849,160.036453 192.227676,149.380798 
	C192.506729,137.236237 192.259811,125.079597 192.210815,112.188568 
	C192.187988,111.256050 192.195831,111.063164 192.203659,110.870285 
	C197.138336,110.870285 202.073029,110.870285 207.638031,110.870285 
	C207.638031,115.687073 207.638031,120.380676 207.638031,125.343216 
	C222.973221,118.132401 231.318802,120.733521 235.201309,134.169266 
	C235.457306,149.274704 235.574112,163.606155 235.690903,177.937607 
z"/>
<path fill="#FBFCFD" opacity="1.000000" stroke="none" 
	d="
M232.643936,43.957481 
	C235.797287,44.014915 238.999130,43.761024 242.086517,44.241982 
	C244.062149,44.549751 245.868744,45.942738 248.572128,47.244587 
	C257.932800,40.503609 265.741302,40.918560 272.969055,49.877316 
	C276.760468,45.803673 281.026642,42.694256 287.006531,42.904129 
	C295.118927,43.188850 301.226318,47.628937 301.566467,55.683380 
	C302.181091,70.236664 301.740417,84.834511 301.740417,100.116714 
	C296.950134,100.116714 292.363403,100.116714 287.258118,99.606857 
	C286.727997,90.327835 286.810760,81.557220 286.674835,72.789993 
	C286.567474,65.864510 286.191284,58.943199 285.934448,52.020035 
	C283.788818,47.193447 279.367859,46.423271 276.769501,50.781204 
	C275.416992,53.049667 274.918701,56.114941 274.881805,58.831791 
	C274.698914,72.303978 274.798401,85.780006 274.798401,100.048286 
	C269.682648,100.048286 264.943085,100.048286 259.753296,99.529686 
	C259.298615,85.182846 259.342987,71.354225 259.236511,57.526772 
	C259.220764,55.486515 258.491028,53.451759 258.091614,51.414459 
	C257.135559,48.088406 255.670227,47.209969 252.748795,48.402020 
	C248.694702,50.056244 247.939590,53.544437 247.940765,57.409790 
	C247.945007,71.345657 247.942413,85.281525 247.942413,100.097588 
	C242.900848,100.097588 238.174164,100.097588 233.008926,99.578110 
	C232.594879,80.691582 232.619415,62.324532 232.643936,43.957481 
z"/>
<path fill="#FAFBFD" opacity="1.000000" stroke="none" 
	d="
M202.398224,96.851791 
	C193.779572,103.490868 183.329636,102.228996 178.098053,93.054451 
	C170.544220,79.807373 170.308746,65.907837 177.948792,52.586254 
	C183.301102,43.253666 192.733643,41.071362 201.938416,46.553219 
	C201.938416,41.888424 201.938416,37.550156 201.938416,32.817516 
	C207.455582,32.817516 212.358597,32.817516 217.620178,32.817516 
	C217.620178,55.041470 217.620178,77.115112 217.620178,100.091667 
	C213.471848,100.091667 209.222946,100.262207 205.010712,99.945335 
	C204.185089,99.883224 203.501358,97.934723 202.398224,96.851791 
M188.682480,80.969574 
	C188.717133,82.633614 188.700699,84.300568 188.795273,85.961197 
	C189.211670,93.272980 191.310638,97.015640 194.964066,97.040192 
	C198.925446,97.066811 201.442688,93.141640 202.282059,85.229164 
	C202.188232,76.152733 202.094406,67.076302 202.054535,57.202534 
	C201.788406,55.734173 201.962280,53.938229 201.164032,52.866013 
	C199.530121,50.671284 197.374146,48.865200 195.433151,46.899082 
	C193.654129,48.798729 190.894958,50.437744 190.305695,52.653759 
	C189.174316,56.908447 189.273544,61.490368 188.673523,66.859612 
	C188.735870,71.266327 188.798218,75.673035 188.682480,80.969574 
z"/>
<path fill="#FAFBFD" opacity="1.000000" stroke="none" 
	d="
M412.539337,99.946762 
	C407.530823,100.003532 402.522308,100.060303 397.094849,99.596649 
	C396.676453,95.598259 396.715332,92.119812 396.670593,88.642441 
	C396.517487,76.736664 396.335052,64.831268 396.163757,52.925728 
	C395.083801,51.302048 394.150146,48.486870 392.889832,48.332100 
	C390.967621,48.096054 387.981781,49.139809 386.967712,50.656513 
	C385.522491,52.818047 384.934387,55.890305 384.886017,58.589775 
	C384.674652,70.388443 384.790375,82.192978 384.787537,93.995377 
	C384.787109,95.789566 384.787476,97.583755 384.787476,99.758499 
	C379.592560,99.758499 374.871460,99.758499 369.757324,99.758499 
	C369.757324,81.372269 369.757324,63.031082 369.757324,44.407257 
	C374.420898,44.407257 378.832245,44.407257 383.450287,44.407257 
	C383.703217,45.754093 383.939728,47.013645 384.142883,48.095425 
	C396.067047,40.737194 406.474121,38.823551 412.282349,56.193344 
	C412.457611,71.299545 412.498474,85.623154 412.539337,99.946762 
z"/>
<path fill="#FAFBFD" opacity="1.000000" stroke="none" 
	d="
M133.746887,177.943176 
	C130.848038,178.516846 127.971283,179.292236 125.044708,179.612656 
	C121.461525,180.004944 117.871567,179.972672 118.955566,175.341110 
	C114.811928,176.675919 110.751816,178.716095 106.517181,179.187103 
	C98.980804,180.025314 93.919632,176.656586 91.846825,170.643097 
	C89.275139,163.182251 91.175926,155.181473 97.288040,151.465118 
	C102.369293,148.375565 108.064468,146.298096 113.478455,143.752640 
	C117.967819,141.641876 120.652824,129.049088 116.705826,126.129646 
	C114.714531,124.656754 110.958260,125.570053 108.000053,125.404396 
	C108.060966,127.135628 107.525208,129.223434 108.303589,130.525894 
	C110.073952,133.488235 110.858376,136.830032 107.992767,138.529434 
	C105.196327,140.187836 101.186264,140.908218 97.954323,140.419159 
	C94.567101,139.906586 92.764069,136.290283 93.938316,132.972382 
	C94.921478,130.194412 96.860153,127.135193 99.267723,125.593369 
	C107.492935,120.325951 116.678780,119.688797 125.556915,123.380814 
	C128.623550,124.656105 130.549149,128.675247 133.153030,132.196732 
	C133.455688,147.949341 133.601288,162.946259 133.746887,177.943176 
M110.923340,149.514496 
	C105.405876,155.528931 106.860367,162.894852 107.217232,169.939468 
	C107.299286,171.559189 108.779984,174.063538 110.084099,174.411819 
	C111.548203,174.802826 113.955368,173.619537 115.191566,172.369141 
	C116.487434,171.058380 117.490677,168.878510 117.560501,167.038239 
	C117.827888,159.990234 117.668633,152.926041 117.668633,145.215378 
	C115.341698,146.643127 113.403069,147.832626 110.923340,149.514496 
z"/>
<path fill="#FAFBFD" opacity="1.000000" stroke="none" 
	d="
M355.152252,100.030411 
	C351.657440,100.068520 348.135437,100.379616 344.678772,100.035042 
	C342.817230,99.849480 341.067688,98.540390 339.267609,97.738228 
	C339.420898,97.341171 339.574158,96.944107 339.727448,96.547050 
	C337.475464,97.868622 335.359833,99.564850 332.946503,100.442940 
	C325.062958,103.311363 316.703308,100.181541 313.670929,93.515533 
	C310.042114,85.538429 312.541565,76.276405 319.924530,72.178955 
	C324.408905,69.690178 329.276215,67.838814 334.089386,66.011734 
	C337.899811,64.565300 339.535706,62.034912 339.376404,58.081551 
	C339.289337,55.920494 339.451080,53.746960 339.314453,51.590855 
	C339.039276,47.248642 335.992859,45.052021 331.790344,46.265247 
	C328.580078,47.192013 326.511230,48.746601 329.473083,52.253849 
	C331.715973,54.909767 331.761230,57.869884 329.503540,60.428761 
	C326.583008,63.738918 322.398346,64.134224 319.034088,62.123192 
	C316.997162,60.905598 314.761169,56.935555 315.355347,55.079510 
	C316.412994,51.775650 318.969757,48.144379 321.930481,46.414207 
	C329.631042,41.914200 338.070312,41.748344 346.485504,44.904610 
	C351.249603,46.691475 354.070312,50.129143 355.214172,55.737999 
	C355.246399,70.951569 355.199310,85.490990 355.152252,100.030411 
M332.647980,71.123657 
	C327.058594,76.556686 328.073944,83.531120 328.287781,90.264870 
	C328.378632,93.126671 328.924530,96.732819 332.564331,96.223427 
	C334.683136,95.926910 337.818695,93.180695 338.100250,91.196602 
	C339.170135,83.657425 339.263580,75.979683 339.809265,66.903564 
	C336.559692,68.759521 334.901276,69.706718 332.647980,71.123657 
z"/>
<path fill="#FAFBFC" opacity="1.000000" stroke="none" 
	d="
M108.731949,43.346657 
	C115.817627,42.139488 121.600815,44.051048 126.752548,48.312489 
	C140.142059,59.388096 139.955597,85.500992 126.381546,96.314926 
	C117.896324,103.074776 107.693398,103.261780 99.422562,96.262329 
	C90.153580,88.418167 87.885056,77.889450 89.638931,66.415482 
	C91.345261,55.252682 96.948944,46.914612 108.731949,43.346657 
M120.281639,61.071259 
	C119.925430,57.651939 120.227341,53.965347 118.984901,50.905937 
	C118.136658,48.817223 115.153534,46.382919 113.085999,46.347054 
	C111.066628,46.312023 108.522804,48.789249 107.103683,50.796131 
	C106.002853,52.352909 106.279739,54.883900 105.724228,57.771362 
	C106.136078,69.519424 106.547920,81.267479 107.040405,93.753036 
	C108.084145,97.053017 110.292313,98.607430 113.777367,98.244324 
	C117.367851,97.870239 119.146217,95.457451 119.333145,92.268127 
	C119.786324,84.536346 119.858780,76.782234 120.240303,68.161743 
	C120.189735,66.091988 120.139175,64.022232 120.281639,61.071259 
z"/>
<path fill="#F7F8FB" opacity="1.000000" stroke="none" 
	d="
M285.838196,158.399933 
	C285.877380,168.966232 280.789948,175.931793 271.021790,177.783615 
	C264.552551,179.010010 257.867615,179.105362 251.277008,179.681442 
	C248.553558,179.919479 247.251373,178.598358 247.256531,175.889236 
	C247.266373,170.722839 247.179230,165.554245 247.326675,160.392120 
	C247.351837,159.511307 248.343903,158.658112 248.889282,157.792160 
	C249.626938,158.498016 250.680389,159.071198 251.043076,159.934570 
	C252.135590,162.535309 252.624634,165.436630 253.985626,167.863754 
	C255.245895,170.111282 257.018982,172.341034 259.110504,173.796387 
	C263.434631,176.805206 270.123108,175.716156 272.714905,172.059647 
	C275.372406,168.310455 274.472870,162.577194 269.996613,159.196426 
	C265.631287,155.899445 260.741119,153.301437 256.110596,150.350693 
	C248.207764,145.314713 245.850204,140.968430 247.243057,134.138031 
	C248.614822,127.411102 254.004257,122.557358 262.367889,121.766060 
	C268.758118,121.161461 275.251373,121.645874 282.304840,121.645874 
	C282.304840,125.937424 282.378967,130.062302 282.236969,134.179718 
	C282.211212,134.925980 281.299988,135.641724 280.797546,136.371552 
	C280.068695,135.827484 279.091309,135.430527 278.663757,134.708130 
	C277.823029,133.287674 277.395660,131.627884 276.605347,130.171234 
	C274.510010,126.309242 271.055267,123.915672 266.830719,124.559517 
	C264.095093,124.976425 260.322235,126.825882 259.462860,129.000961 
	C258.601715,131.180450 259.913696,135.573898 261.812439,137.203827 
	C265.654877,140.502182 270.501862,142.653473 275.002228,145.156158 
	C280.250275,148.074631 284.927216,151.405853 285.838196,158.399933 
z"/>
<path fill="#F9FAFC" opacity="1.000000" stroke="none" 
	d="
M146.693939,33.039207 
	C151.781387,32.880051 156.868851,32.720890 162.322647,33.087852 
	C162.671570,55.720821 162.654160,77.827675 162.636734,99.934532 
	C157.697586,99.996147 152.758453,100.057762 147.311279,99.603714 
	C146.766815,77.071762 146.730377,55.055485 146.693939,33.039207 
z"/>
<path fill="#517CB5" opacity="1.000000" stroke="none" 
	d="
M146.422058,33.285294 
	C146.730377,55.055485 146.766815,77.071762 146.839905,99.556984 
	C146.256058,98.401581 145.106476,96.780708 145.095779,95.152351 
	C144.970032,76.014458 144.991318,56.875347 145.064026,37.736904 
	C145.069351,36.333706 145.771805,34.933159 146.422058,33.285294 
z"/>
<path fill="#517CB5" opacity="1.000000" stroke="none" 
	d="
M285.755280,52.389328 
	C286.191284,58.943199 286.567474,65.864510 286.674835,72.789993 
	C286.810760,81.557220 286.727997,90.327835 286.781433,99.566109 
	C286.252045,99.065392 285.181152,98.093933 285.184296,97.125961 
	C285.232300,82.336578 285.420532,67.547653 285.755280,52.389328 
z"/>
<path fill="#517CB5" opacity="1.000000" stroke="none" 
	d="
M355.437866,99.784752 
	C355.199310,85.490990 355.246399,70.951569 355.475708,55.917877 
	C356.084167,56.838100 356.868622,58.249596 356.880463,59.667557 
	C356.982941,71.912750 356.976105,84.159294 356.897736,96.404770 
	C356.891022,97.452011 356.132660,98.494431 355.437866,99.784752 
z"/>
<path fill="#4D7AB4" opacity="1.000000" stroke="none" 
	d="
M162.869904,99.591293 
	C162.654160,77.827675 162.671570,55.720821 162.711334,33.091179 
	C163.152115,34.316174 163.926254,36.062313 163.934341,37.811996 
	C164.022446,56.855106 164.009674,75.898827 163.953018,94.942177 
	C163.948746,96.378304 163.399155,97.812805 162.869904,99.591293 
z"/>
<path fill="#4D7AB4" opacity="1.000000" stroke="none" 
	d="
M232.382950,44.299988 
	C232.619415,62.324532 232.594879,80.691582 232.580658,99.533127 
	C232.065826,98.323959 231.097900,96.643761 231.084686,94.956093 
	C230.965698,79.758041 230.981827,64.558517 231.062073,49.359962 
	C231.070374,47.785648 231.752487,46.214893 232.382950,44.299988 
z"/>
<path fill="#4977B2" opacity="1.000000" stroke="none" 
	d="
M258.081268,51.920227 
	C258.491028,53.451759 259.220764,55.486515 259.236511,57.526772 
	C259.342987,71.354225 259.298615,85.182846 259.308411,99.475639 
	C258.880066,98.043762 258.082733,96.149635 258.070679,94.250534 
	C257.982483,80.309578 258.051483,66.367630 258.081268,51.920227 
z"/>
<path fill="#4D7AB4" opacity="1.000000" stroke="none" 
	d="
M218.755280,130.396637 
	C219.145706,139.249039 219.421814,148.471039 219.555496,157.695129 
	C219.648773,164.130966 219.546967,170.569641 219.483887,177.469131 
	C218.966873,176.558441 218.099136,175.187927 218.091415,173.812561 
	C218.014359,160.103165 218.072769,146.392914 218.123932,132.683044 
	C218.126312,132.043854 218.421402,131.405731 218.755280,130.396637 
z"/>
<path fill="#517CB5" opacity="1.000000" stroke="none" 
	d="
M395.957520,53.292183 
	C396.335052,64.831268 396.517487,76.736664 396.670593,88.642441 
	C396.715332,92.119812 396.676453,95.598259 396.671967,99.553452 
	C396.125793,98.677513 395.121185,97.327171 395.112885,95.970726 
	C395.030273,82.497711 395.104279,69.023651 395.173279,55.550083 
	C395.176514,54.918633 395.550110,54.289074 395.957520,53.292183 
z"/>
<path fill="#4D7AB4" opacity="1.000000" stroke="none" 
	d="
M133.967651,177.594299 
	C133.601288,162.946259 133.455688,147.949341 133.308884,132.478302 
	C133.857880,133.348541 134.874634,134.688980 134.885895,136.037827 
	C134.993973,148.987518 134.945114,161.938705 134.888260,174.889221 
	C134.884811,175.675629 134.432068,176.460052 133.967651,177.594299 
z"/>
<path fill="#4977B2" opacity="1.000000" stroke="none" 
	d="
M412.783783,99.606499 
	C412.498474,85.623154 412.457611,71.299545 412.423279,56.508392 
	C412.937988,57.403076 413.875214,58.761555 413.887115,60.128113 
	C413.992920,72.240738 413.954346,84.354897 413.886292,96.468201 
	C413.881042,97.402458 413.327148,98.333633 412.783783,99.606499 
z"/>
<path fill="#4977B2" opacity="1.000000" stroke="none" 
	d="
M235.917511,177.591797 
	C235.574112,163.606155 235.457306,149.274704 235.350739,134.469635 
	C235.889664,135.350967 236.865585,136.702087 236.877182,138.061432 
	C236.981888,150.341187 236.931488,162.622452 236.870605,174.903000 
	C236.866714,175.685181 236.397095,176.465042 235.917511,177.591797 
z"/>
<path fill="#4D7AB4" opacity="1.000000" stroke="none" 
	d="
M208.203812,177.620132 
	C207.968475,164.968765 207.915283,151.948502 207.930023,138.463776 
	C208.331497,140.276062 208.966125,142.555328 208.947281,144.829147 
	C208.857697,155.637314 208.590164,166.444031 208.203812,177.620132 
z"/>
<path fill="#4D7AB4" opacity="1.000000" stroke="none" 
	d="
M57.247402,179.075958 
	C58.025131,178.740524 59.085732,178.567245 60.550323,178.405182 
	C59.812969,178.690308 58.671619,178.964218 57.247402,179.075958 
z"/>
<path fill="#517CB5" opacity="1.000000" stroke="none" 
	d="
M192.150055,111.009781 
	C192.195831,111.063164 192.187988,111.256050 192.110062,111.729858 
	C191.976669,111.716141 191.995483,111.428970 192.150055,111.009781 
z"/>
<path fill="#4D7AB4" opacity="1.000000" stroke="none" 
	d="
M208.060516,134.871994 
	C208.027954,134.990707 207.960632,134.501968 208.027924,134.264664 
	C208.151703,134.271774 208.151001,134.513748 208.060516,134.871994 
z"/>
<path fill="#4D7AB4" opacity="1.000000" stroke="none" 
	d="
M32.190948,178.726028 
	C32.078110,178.671951 32.563297,178.750992 32.793686,178.836487 
	C32.769955,178.935211 32.529858,178.887924 32.190948,178.726028 
z"/>
<path fill="#6287BA" opacity="1.000000" stroke="none" 
	d="
M202.036652,86.011803 
	C201.442688,93.141640 198.925446,97.066811 194.964066,97.040192 
	C191.310638,97.015640 189.211670,93.272980 188.795273,85.961197 
	C188.700699,84.300568 188.717133,82.633614 188.973099,80.159279 
	C189.129913,74.878166 188.996094,70.407356 188.862274,65.936539 
	C189.273544,61.490368 189.174316,56.908447 190.305695,52.653759 
	C190.894958,50.437744 193.654129,48.798729 195.433151,46.899078 
	C197.374146,48.865200 199.530121,50.671284 201.164032,52.866013 
	C201.962280,53.938229 201.788406,55.734173 201.852692,57.973770 
	C201.779465,67.833939 201.908051,76.922874 202.036652,86.011803 
z"/>
<path fill="#6C8FBF" opacity="1.000000" stroke="none" 
	d="
M202.159363,85.620483 
	C201.908051,76.922874 201.779465,67.833939 201.825714,58.372437 
	C202.094406,67.076302 202.188232,76.152733 202.159363,85.620483 
z"/>
<path fill="#517CB5" opacity="1.000000" stroke="none" 
	d="
M188.767899,66.398071 
	C188.996094,70.407356 189.129913,74.878166 189.062134,79.714371 
	C188.798218,75.673035 188.735870,71.266327 188.767899,66.398071 
z"/>
<path fill="#6287BA" opacity="1.000000" stroke="none" 
	d="
M111.193893,149.268311 
	C113.403069,147.832626 115.341698,146.643127 117.668633,145.215378 
	C117.668633,152.926041 117.827888,159.990234 117.560501,167.038239 
	C117.490677,168.878510 116.487434,171.058380 115.191566,172.369141 
	C113.955368,173.619537 111.548203,174.802826 110.084099,174.411819 
	C108.779984,174.063538 107.299286,171.559189 107.217232,169.939468 
	C106.860367,162.894852 105.405876,155.528931 111.193893,149.268311 
z"/>
<path fill="#6488BB" opacity="1.000000" stroke="none" 
	d="
M332.945435,70.888786 
	C334.901276,69.706718 336.559692,68.759521 339.809265,66.903564 
	C339.263580,75.979683 339.170135,83.657425 338.100250,91.196602 
	C337.818695,93.180695 334.683136,95.926910 332.564331,96.223427 
	C328.924530,96.732819 328.378632,93.126671 328.287781,90.264870 
	C328.073944,83.531120 327.058594,76.556686 332.945435,70.888786 
z"/>
<path fill="#6287BA" opacity="1.000000" stroke="none" 
	d="
M120.084656,69.037125 
	C119.858780,76.782234 119.786324,84.536346 119.333145,92.268127 
	C119.146217,95.457451 117.367851,97.870239 113.777367,98.244324 
	C110.292313,98.607430 108.084145,97.053017 107.164085,93.058365 
	C107.519875,87.435654 108.125175,82.490044 107.894188,77.583801 
	C107.570160,70.701134 106.624168,63.847755 105.944214,56.981850 
	C106.279739,54.883900 106.002853,52.352909 107.103683,50.796131 
	C108.522804,48.789249 111.066628,46.312023 113.085999,46.347054 
	C115.153534,46.382919 118.136658,48.817223 118.984901,50.905937 
	C120.227341,53.965347 119.925430,57.651939 120.001709,61.838638 
	C119.842735,64.749718 119.963699,66.893417 120.084656,69.037125 
z"/>
<path fill="#6C8FBF" opacity="1.000000" stroke="none" 
	d="
M105.834213,57.376606 
	C106.624168,63.847755 107.570160,70.701134 107.894188,77.583801 
	C108.125175,82.490044 107.519875,87.435654 107.123764,92.689621 
	C106.547920,81.267479 106.136078,69.519424 105.834213,57.376606 
z"/>
<path fill="#4D7AB4" opacity="1.000000" stroke="none" 
	d="
M120.162476,68.599434 
	C119.963699,66.893417 119.842735,64.749718 119.905197,62.279243 
	C120.139175,64.022232 120.189735,66.091988 120.162476,68.599434 
z"/>
</svg>