<svg version="1.1" id="Layer_1" xmlns="http://www.w3.org/2000/svg" xmlns:xlink="http://www.w3.org/1999/xlink" x="0px" y="0px"
	 width="100%" viewBox="0 0 288 288" enable-background="new 0 0 288 288" xml:space="preserve">
<path fill="#000000" opacity="1.000000" stroke="none" 
	d="
M23.586544,159.099915 
	C14.706742,129.024384 33.604595,103.812019 56.450222,97.673515 
	C65.002281,95.375618 73.542534,95.123161 82.068260,97.705345 
	C84.207687,98.353317 86.915764,98.577988 85.945831,102.149765 
	C84.998032,105.640053 82.995140,105.849541 79.891556,104.914436 
	C56.975311,98.009781 28.347260,114.397095 28.827168,144.510773 
	C29.353916,177.563828 63.080166,193.813461 88.984467,179.697372 
	C113.878151,166.132019 117.491295,132.901093 96.388786,113.751884 
	C94.827560,112.335175 91.990913,111.412689 93.550438,108.233849 
	C95.323769,104.619217 97.135429,104.440216 100.985786,107.628807 
	C123.858803,126.570686 123.065460,163.694626 99.398750,181.893021 
	C72.653809,202.458405 36.194519,191.665604 23.586544,159.099915 
z"/>
<path fill="#000000" opacity="1.000000" stroke="none" 
	d="
M94.065674,173.106354 
	C76.113579,187.146088 51.472649,184.350311 39.230633,167.049667 
	C38.051880,165.383835 35.363102,163.596939 38.401382,161.191605 
	C41.257717,158.930328 43.140617,159.792252 45.378792,162.536148 
	C60.042263,180.512878 86.248634,178.106903 96.499825,157.978683 
	C102.287117,146.615326 100.646149,133.229340 92.330116,123.964828 
	C83.670273,114.317299 70.555458,111.085922 58.655540,115.667717 
	C46.853607,120.211784 38.982510,131.681717 39.000648,144.338898 
	C39.002316,145.502914 39.077393,146.670700 39.188900,147.829941 
	C39.505333,151.119705 37.185471,151.729156 34.781910,151.992294 
	C32.187584,152.276260 31.962748,150.241623 31.704523,148.377213 
	C28.742622,126.991753 44.748096,107.616150 67.912827,106.289223 
	C89.011360,105.080666 105.872139,120.539078 107.275589,141.779282 
	C108.098473,154.233063 103.597252,164.570999 94.065674,173.106354 
z"/>
<path fill="#000000" opacity="1.000000" stroke="none" 
	d="
M44.779510,156.973358 
	C39.395401,145.045319 41.240158,133.137482 49.561028,124.717735 
	C57.858109,116.322075 70.224960,113.986000 80.886864,118.800354 
	C91.616531,123.645294 97.964836,134.248901 97.223808,146.163422 
	C97.141617,147.484924 97.032875,148.867065 96.579895,150.088898 
	C95.868034,152.009018 96.410149,155.427933 92.680206,154.446564 
	C89.759338,153.678101 88.255310,151.903717 89.248840,148.472641 
	C90.775932,143.198990 89.421799,138.245316 86.751534,133.604736 
	C82.164207,125.632538 71.638115,121.785721 62.945171,124.875664 
	C53.362698,128.281815 47.675720,137.946579 49.415733,147.868362 
	C51.010303,156.960800 59.006512,163.753799 68.333717,164.071930 
	C72.785080,164.223755 77.046036,163.648987 80.673599,160.919998 
	C83.580841,158.732895 85.735703,159.847504 87.410454,162.278076 
	C89.380058,165.136566 86.467178,166.056793 84.891197,167.179001 
	C71.714844,176.561371 53.903522,172.131790 44.779510,156.973358 
z"/>
<path fill="#000000" opacity="1.000000" stroke="none" 
	d="
M148.478394,173.653824 
	C151.350449,171.444946 150.576019,169.742676 148.025879,168.685928 
	C145.272888,167.545166 142.307266,166.922623 139.537857,165.815292 
	C135.696320,164.279282 133.078720,161.534637 133.178757,157.171509 
	C133.286224,152.483307 135.915359,149.500458 140.327866,148.016922 
	C144.816849,146.507721 149.205887,147.310760 153.557922,148.578873 
	C155.378983,149.109497 157.185776,149.851837 156.255005,152.377838 
	C155.504868,154.413605 154.436234,155.874344 151.817307,155.158508 
	C149.912903,154.637955 147.923584,154.316162 145.953232,154.180801 
	C144.047852,154.049911 142.050949,154.519394 141.699707,156.738586 
	C141.370773,158.816864 143.234131,159.466980 144.820557,160.015823 
	C147.174896,160.830353 149.585953,161.484894 151.925354,162.337814 
	C156.127777,163.869995 158.473602,166.811890 158.260620,171.413742 
	C158.041336,176.151413 155.481277,178.969864 150.973129,180.366379 
	C145.726288,181.991714 140.780151,180.953934 135.881775,179.113571 
	C133.982010,178.399811 132.659256,177.253983 133.900665,174.951782 
	C134.912628,173.075058 135.958389,171.574005 138.553726,172.694458 
	C141.609146,174.013580 144.770432,175.152863 148.478394,173.653824 
z"/>
<path fill="#000000" opacity="1.000000" stroke="none" 
	d="
M221.461609,167.471924 
	C221.062881,170.832474 218.717331,170.800049 216.566925,170.855652 
	C213.131500,170.944473 209.692123,170.879395 205.572083,170.879395 
	C207.614456,175.058487 210.434875,175.259079 213.631821,174.163376 
	C216.223526,173.275146 218.815018,172.741516 219.611053,176.148956 
	C220.402191,179.535416 217.128952,179.568619 215.170563,180.237808 
	C209.712845,182.102798 204.607300,181.360611 200.595139,176.942871 
	C196.946289,172.925156 196.359634,165.933136 198.927780,161.025726 
	C201.248642,156.590866 205.952103,154.217453 211.457382,154.703186 
	C217.924011,155.273697 221.336075,159.496521 221.461609,167.471924 
M211.766739,164.667679 
	C213.173080,164.388535 213.848267,163.592545 213.135849,162.234177 
	C212.479538,160.982773 211.289597,160.272049 209.866577,160.545410 
	C208.041428,160.896042 206.531448,161.711121 206.607742,163.952179 
	C208.109436,165.046097 209.621201,164.638947 211.766739,164.667679 
z"/>
<path fill="#000000" opacity="1.000000" stroke="none" 
	d="
M222.942444,165.424423 
	C225.594589,157.179611 230.663940,153.649185 237.761444,154.813538 
	C241.428391,155.415085 244.304688,157.229858 245.872147,160.723145 
	C248.777191,167.197495 246.578491,170.623611 239.580673,170.707932 
	C236.994049,170.739090 234.409714,170.958954 231.400742,171.114685 
	C232.922058,174.665695 235.343842,175.057968 238.137802,174.526596 
	C239.273315,174.310654 240.344116,173.763809 241.477585,173.525650 
	C243.556564,173.088867 244.554321,174.551620 245.243240,176.087448 
	C246.116074,178.033325 244.504486,178.702728 243.179260,179.407806 
	C232.737930,184.962906 222.824860,178.331055 222.942444,165.424423 
M231.927368,163.684082 
	C234.283829,165.604202 236.659073,164.849182 239.208252,164.056061 
	C236.753723,159.444168 235.719543,159.345474 231.927368,163.684082 
z"/>
<path fill="#000000" opacity="1.000000" stroke="none" 
	d="
M213.820129,119.991592 
	C218.990005,114.844719 224.108322,113.668343 229.385483,116.302322 
	C233.774094,118.492798 235.282120,122.330727 235.281937,127.020004 
	C235.281815,129.936829 234.022842,131.287720 231.053696,131.207962 
	C227.471497,131.111755 223.884735,131.185181 219.725632,131.185181 
	C221.640457,135.911041 224.498734,136.177444 227.689423,134.706940 
	C230.406631,133.454666 232.636093,133.329498 233.575455,136.550766 
	C234.493484,139.698837 231.528137,139.939148 229.696732,140.605728 
	C223.986679,142.684067 217.442795,141.445633 214.464401,137.546997 
	C210.293121,132.086914 210.070068,126.243271 213.820129,119.991592 
M226.183075,125.269867 
	C229.037094,123.390434 226.831909,122.115669 225.395416,121.576576 
	C222.640106,120.542557 220.852859,121.884460 219.812531,125.278488 
	C222.038513,125.278488 223.796158,125.278488 226.183075,125.269867 
z"/>
<path fill="#000000" opacity="1.000000" stroke="none" 
	d="
M160.672363,129.869202 
	C163.306412,127.232964 166.373398,126.492126 169.494171,125.866241 
	C170.956543,125.572952 172.822403,125.427040 172.270340,123.276520 
	C171.819473,121.520172 170.114822,121.322327 168.571960,121.598511 
	C167.274658,121.830750 165.967850,122.228165 164.776489,122.788818 
	C162.231216,123.986618 161.182907,122.706215 160.307693,120.537361 
	C159.277908,117.985527 160.907455,117.278648 162.726761,116.617012 
	C166.049194,115.408722 169.392227,114.741020 172.987061,115.433762 
	C177.810242,116.363197 180.136917,119.127846 180.346069,124.010864 
	C180.534393,128.407288 179.689560,132.815338 181.971497,137.153259 
	C183.366333,139.804810 181.320251,142.007523 178.382965,140.879517 
	C174.978470,139.572113 172.144516,140.083923 168.907150,141.230621 
	C165.775421,142.339920 162.511520,141.674942 160.289597,138.915146 
	C158.011414,136.085480 158.366562,133.054123 160.672363,129.869202 
M172.613663,132.523315 
	C171.946289,128.806030 169.890839,130.749847 168.347122,131.606567 
	C167.244812,132.218323 165.967560,133.345596 167.065384,134.752853 
	C168.314697,136.354263 169.991043,135.809509 171.404312,134.763763 
	C171.893112,134.402069 172.151749,133.729340 172.613663,132.523315 
z"/>
<path fill="#000000" opacity="1.000000" stroke="none" 
	d="
M195.744690,116.118408 
	C203.800201,113.775467 208.050385,116.800537 208.248184,124.736313 
	C208.351868,128.896332 208.234100,133.061447 208.294800,137.223129 
	C208.333954,139.907471 207.224472,141.184387 204.429825,141.142838 
	C201.584793,141.100540 200.664001,139.654419 200.707718,137.042862 
	C200.769043,133.381088 200.728287,129.716599 200.670609,126.054214 
	C200.634552,123.765038 200.250687,121.407074 197.312881,121.507553 
	C194.570892,121.601311 193.237183,123.443314 193.240845,126.207741 
	C193.245453,129.704224 193.174088,133.201462 193.227036,136.696991 
	C193.266998,139.335541 192.801376,141.210617 189.458801,141.185364 
	C185.938263,141.158737 185.393555,139.285934 185.496063,136.354492 
	C185.670517,131.364807 185.593475,126.366585 185.642181,121.372147 
	C185.696747,115.777756 186.858261,114.794250 192.142746,116.278564 
	C193.347855,116.617050 194.325989,116.887543 195.744690,116.118408 
z"/>
<path fill="#000000" opacity="1.000000" stroke="none" 
	d="
M146.940063,123.911209 
	C146.967560,119.600235 147.002777,115.773621 147.023483,111.946945 
	C147.038300,109.209450 148.498154,108.098221 151.126541,108.136574 
	C153.665619,108.173630 155.252426,109.059128 155.215469,111.918053 
	C155.131607,118.405190 155.543335,124.929375 154.987717,131.372452 
	C154.195084,140.563644 144.135239,144.883560 136.683456,139.552628 
	C135.474197,138.687546 133.923538,137.730988 134.867203,135.974655 
	C135.723358,134.381210 137.014038,132.887024 139.133606,133.026947 
	C146.952301,133.543152 146.950699,133.567932 146.945557,125.393921 
	C146.945358,125.061127 146.942963,124.728340 146.940063,123.911209 
z"/>
<path fill="#000000" opacity="1.000000" stroke="none" 
	d="
M251.758453,170.843948 
	C251.374786,166.671646 253.265594,162.351273 248.401398,159.865494 
	C247.284088,159.294510 247.295334,156.349304 248.635986,155.953903 
	C252.555557,154.797958 250.992386,146.517242 257.596069,149.262527 
	C258.642639,149.697632 259.257538,150.382584 259.271057,151.471924 
	C259.297791,153.625565 260.220551,154.868042 262.444092,155.171371 
	C263.907715,155.371017 264.865509,156.228485 264.811890,157.861267 
	C264.757477,159.519379 264.096222,160.555923 262.353882,161.113129 
	C256.499817,162.985199 260.173401,167.847076 259.465027,171.281189 
	C258.827118,174.373596 261.246307,174.476257 263.690460,174.303970 
	C265.453613,174.179703 266.201202,175.773300 266.590790,177.247070 
	C267.044098,178.961670 265.659149,179.581009 264.449738,180.114883 
	C258.063751,182.933868 251.058090,180.345062 251.758453,170.843948 
z"/>
<path fill="#000000" opacity="1.000000" stroke="none" 
	d="
M170.356873,170.461304 
	C170.357239,173.172287 170.964127,174.897537 173.796097,174.413315 
	C175.858002,174.060776 177.011765,175.180420 177.491302,176.922806 
	C178.110352,179.172256 176.209457,179.695023 174.710526,180.325546 
	C168.571167,182.908173 163.159973,179.600479 162.776382,172.996811 
	C162.641800,170.679962 162.752640,168.349548 162.722244,166.025696 
	C162.709244,165.032639 162.990952,163.428406 162.512558,163.139771 
	C155.216553,158.737823 162.241226,154.913589 162.953293,150.892334 
	C163.238403,149.282227 164.716507,149.060013 166.084381,149.037369 
	C167.571884,149.012711 169.775406,148.885788 169.922043,150.493271 
	C170.223312,153.795670 172.245544,154.594559 174.778488,155.763336 
	C176.575424,156.592484 176.621384,159.943268 174.943588,160.297043 
	C168.653442,161.623413 170.647354,166.256683 170.356873,170.461304 
z"/>
<path fill="#000000" opacity="1.000000" stroke="none" 
	d="
M180.675018,163.089508 
	C180.689362,155.115784 180.697800,155.071609 187.912888,156.450943 
	C189.532166,156.760498 190.165894,155.190079 191.452484,155.027390 
	C193.791855,154.731567 196.871323,153.253448 197.642319,156.783432 
	C198.215424,159.407364 197.521439,161.985886 193.477631,161.844818 
	C190.188828,161.730072 188.396851,164.003113 188.269394,167.321625 
	C188.173752,169.811722 188.259247,172.308472 188.180435,174.799606 
	C188.098953,177.375351 188.748001,180.310623 184.503174,180.393585 
	C180.320908,180.475342 180.656738,177.748383 180.665390,175.042328 
	C180.677597,171.219421 180.673172,167.396469 180.675018,163.089508 
z"/>
</svg>